<svg width="1744" height="261" viewBox="0 0 1744 261" fill="none" xmlns="http://www.w3.org/2000/svg">
<g clip-path="url(#clip0_1_26)">
<g clip-path="url(#clip1_1_26)">
<path d="M37.8634 28.2078L-0.00830078 28.834V219.26L37.8634 218.634V28.2078Z" fill="black"/>
<path d="M93.336 148.907C93.336 143.395 93.8675 137.964 94.9386 132.612C96.0016 127.26 97.8297 122.518 100.407 118.386C102.984 114.254 106.406 110.864 110.674 108.215C114.943 105.567 120.274 104.189 126.676 104.083C133.078 103.978 138.458 105.178 142.807 107.684C147.163 110.19 150.634 113.466 153.211 117.513C155.788 121.56 157.616 126.241 158.679 131.558C159.742 136.874 160.282 142.288 160.282 147.8C160.282 153.312 159.742 158.7 158.679 163.963C157.616 169.225 155.788 173.967 153.211 178.188C150.634 182.409 147.163 185.8 142.807 188.361C138.458 190.922 133.078 192.256 126.676 192.362C120.274 192.468 114.943 191.311 110.674 188.893C106.406 186.474 102.984 183.197 100.407 179.061C97.8297 174.926 96.0016 170.244 94.9386 165.017C93.8675 159.789 93.336 154.419 93.336 148.907ZM55.4619 149.533C55.4619 160.557 57.1531 170.486 60.5355 179.32C63.9097 188.155 68.7094 195.676 74.9345 201.885C81.1596 208.095 88.6249 212.816 97.3384 216.05C106.052 219.284 115.829 220.812 126.676 220.633C137.524 220.454 147.341 218.602 156.143 215.078C164.945 211.554 172.458 206.585 178.683 200.17C184.901 193.755 189.708 186.075 193.083 177.128C196.465 168.183 198.148 158.198 198.148 147.174C198.148 136.151 196.465 126.177 193.083 117.254C189.708 108.33 184.901 100.765 178.683 94.5558C172.458 88.3467 164.945 83.581 156.143 80.2597C147.341 76.9383 137.524 75.3668 126.676 75.5462C115.829 75.7256 106.052 77.6211 97.3384 81.232C88.6249 84.843 81.1596 89.8563 74.9345 96.2714C68.7094 102.686 63.9097 110.411 60.5355 119.446C57.1531 128.481 55.4619 138.51 55.4619 149.533Z" fill="black"/>
<path d="M312.834 145.278C312.834 139.588 313.413 134.111 314.565 128.847C315.725 123.583 317.633 118.839 320.299 114.617C322.964 110.394 326.435 107.003 330.703 104.443C334.972 101.883 340.214 100.553 346.439 100.45C352.302 100.353 357.327 101.603 361.507 104.201C365.686 106.799 369.021 110.211 371.509 114.437C373.997 118.663 375.817 123.434 376.977 128.748C378.129 134.064 378.708 139.388 378.708 144.722C378.708 150.412 378.129 155.889 376.977 161.153C375.817 166.417 373.949 171.071 371.372 175.115C368.795 179.157 365.421 182.413 361.241 184.883C357.062 187.353 351.859 188.639 345.642 188.742C339.417 188.845 334.215 187.686 330.035 185.265C325.856 182.845 322.481 179.568 319.904 175.432C317.327 171.296 315.499 166.615 314.436 161.387C313.365 156.16 312.834 150.79 312.834 145.278ZM415.246 260.668V74.5081L379.24 75.1035V92.7061L378.708 92.7149C374.44 85.1398 368.529 79.7702 360.975 76.6062C353.413 73.4415 345.368 71.9301 336.84 72.0711C326.347 72.2447 317.239 74.44 309.5 78.6573C301.768 82.8746 295.318 88.4485 290.164 95.3789C285.01 102.31 281.185 110.241 278.696 119.172C276.208 128.103 274.959 137.281 274.959 146.704C274.959 160.04 276.828 171.255 280.564 180.35C284.293 189.444 289.004 196.746 294.698 202.252C300.391 207.759 306.657 211.656 313.502 213.943C320.347 216.23 326.967 217.321 333.369 217.215C341.905 217.074 350.168 215.337 358.173 212.004C366.178 208.671 372.395 203.235 376.84 195.694L377.372 195.685V261.294L415.246 260.668Z" fill="black"/>
<path d="M565.131 209.915V72.0297L527.265 72.6559V144.933C527.265 158.979 524.954 169.107 520.331 175.318C515.709 181.528 508.236 184.72 497.928 184.89C488.86 185.04 482.546 182.344 478.987 176.802C475.435 171.26 473.655 162.8 473.655 151.42V73.5423L435.781 74.1686V158.981C435.781 167.515 436.538 175.281 438.052 182.279C439.566 189.278 442.184 195.19 445.92 200.019C449.649 204.847 454.763 208.54 461.254 211.1C467.744 213.66 476.055 214.856 486.194 214.688C494.191 214.556 502.019 212.648 509.661 208.966C517.303 205.283 523.529 199.402 528.328 191.322L529.126 191.309V210.511L565.131 209.915Z" fill="black"/>
<path d="M624.878 49.7057V18.5013L587.003 19.1276V50.332L624.878 49.7057ZM587.003 71.6681V209.554L624.878 208.927V71.0418L587.003 71.6681Z" fill="black"/>
<path d="M739.563 123.287L677.948 124.306C678.125 121.636 678.705 118.603 679.687 115.208C680.662 111.815 682.353 108.585 684.753 105.523C687.153 102.461 690.35 99.875 694.352 97.7642C698.355 95.6525 703.372 94.5476 709.42 94.4476C718.665 94.2947 725.558 96.6699 730.092 101.573C734.626 106.477 737.783 113.714 739.563 123.287ZM677.948 148.309L777.429 146.664C778.145 135.983 777.251 125.775 774.763 116.037C772.275 106.299 768.232 97.653 762.627 90.1009C757.03 82.5477 749.871 76.5763 741.157 72.1865C732.444 67.7966 722.224 65.6986 710.491 65.8926C699.998 66.0661 690.438 68.0909 681.813 71.9678C673.196 75.8437 665.772 81.0786 659.546 87.6708C653.321 94.2638 648.522 102.033 645.147 110.979C641.765 119.925 640.074 129.554 640.074 139.867C640.074 150.535 641.725 160.287 645.01 169.123C648.304 177.958 652.967 185.527 659.015 191.827C665.063 198.129 672.439 202.94 681.153 206.264C689.866 209.587 699.643 211.159 710.491 210.979C726.138 210.721 739.466 206.944 750.491 199.65C761.516 192.355 769.698 180.396 775.029 163.772L741.689 164.324C740.449 168.612 737.066 172.713 731.558 176.626C726.041 180.54 719.47 182.56 711.819 182.687C701.157 182.863 692.975 180.243 687.282 174.824C681.596 169.407 678.487 160.568 677.948 148.309Z" fill="black"/>
<path d="M791.836 68.281V206.167L829.702 205.541V143.399C829.702 137.176 830.33 131.387 831.57 126.032C832.818 120.678 834.904 115.976 837.836 111.927C840.775 107.878 844.641 104.658 849.44 102.267C854.24 99.8766 860.111 98.6231 867.044 98.5084C869.356 98.4702 871.755 98.5642 874.244 98.7896C876.732 99.0151 878.867 99.2914 880.646 99.6171V64.4127C877.618 63.5737 874.864 63.1747 872.376 63.2159C867.576 63.2952 862.953 64.0827 858.508 65.5784C854.063 67.0749 849.883 69.1436 845.977 71.7869C842.064 74.4294 838.592 77.5985 835.573 81.2933C832.545 84.9883 830.145 88.9845 828.373 93.2803L827.842 93.2891V67.6857L791.836 68.281Z" fill="black"/>
<path d="M885.977 109.131C886.509 100.231 888.731 92.8162 892.645 86.884C896.559 80.9517 901.536 76.1575 907.584 72.502C913.624 68.8459 920.429 66.1998 927.982 64.5633C935.536 62.9269 943.139 62.0458 950.789 61.9193C957.723 61.8046 964.745 62.1773 971.856 63.0374C978.967 63.8983 985.458 65.7019 991.329 68.4501C997.192 71.1975 1001.99 75.0747 1005.73 80.0799C1009.46 85.086 1011.32 91.7667 1011.32 100.124V171.867C1011.32 178.089 1011.69 184.04 1012.4 189.718C1013.1 195.396 1014.35 199.643 1016.13 202.458L977.727 203.093C977.01 200.971 976.438 198.802 975.987 196.588C975.545 194.373 975.239 192.111 975.061 189.802C969.014 196.125 961.903 200.599 953.721 203.223C945.539 205.848 937.187 207.231 928.651 207.372C922.072 207.481 915.935 206.782 910.249 205.276C904.556 203.77 899.579 201.363 895.311 198.055C891.043 194.747 887.709 190.535 885.309 185.419C882.909 180.302 881.709 174.188 881.709 167.075C881.709 159.253 883.086 152.784 885.848 147.671C888.603 142.559 892.154 138.455 896.511 135.36C900.868 132.265 905.844 129.916 911.449 128.312C917.046 126.708 922.692 125.414 928.385 124.431C934.071 123.448 939.676 122.644 945.184 122.02C950.701 121.396 955.589 120.514 959.857 119.377C964.125 118.24 967.499 116.628 969.988 114.543C972.476 112.457 973.636 109.459 973.459 105.55C973.459 101.461 972.79 98.2272 971.453 95.8486C970.125 93.4708 968.345 91.6327 966.122 90.3366C963.9 89.0398 961.323 88.1933 958.391 87.7972C955.452 87.4013 952.295 87.2312 948.921 87.287C941.455 87.4105 935.585 89.1077 931.317 92.3786C927.048 95.6495 924.56 101.025 923.851 108.505L885.977 109.131ZM973.459 135.688C971.856 137.137 969.859 138.281 967.459 139.121C965.059 139.961 962.474 140.67 959.72 141.249C956.966 141.828 954.075 142.32 951.055 142.726C948.035 143.131 945.007 143.626 941.987 144.21C939.144 144.79 936.342 145.547 933.588 146.482C930.825 147.416 928.425 148.656 926.38 150.201C924.342 151.747 922.692 153.685 921.451 156.017C920.203 158.35 919.583 161.294 919.583 164.849C919.583 168.227 920.203 171.062 921.451 173.353C922.692 175.644 924.383 177.438 926.517 178.736C928.651 180.035 931.139 180.927 933.982 181.413C936.833 181.9 939.764 182.118 942.784 182.068C950.25 181.945 956.032 180.604 960.123 178.047C964.214 175.49 967.234 172.462 969.191 168.963C971.148 165.464 972.347 161.932 972.79 158.368C973.233 154.805 973.459 151.957 973.459 149.823V135.688Z" fill="black"/>
<path d="M1062 156.893L1026 157.488C1026.35 166.728 1028.44 174.384 1032.26 180.455C1036.09 186.526 1040.98 191.379 1046.94 195.015C1052.89 198.65 1059.69 201.204 1067.33 202.678C1074.99 204.152 1082.81 204.823 1090.81 204.691C1098.63 204.561 1106.32 203.678 1113.87 202.042C1121.44 200.406 1128.14 197.672 1134.02 193.841C1139.88 190.01 1144.64 184.998 1148.28 178.804C1151.93 172.609 1153.75 164.978 1153.75 155.91C1153.75 149.509 1152.51 144.151 1150.02 139.836C1147.53 135.521 1144.23 131.93 1140.14 129.064C1136.06 126.198 1131.39 123.92 1126.15 122.228C1120.9 120.537 1115.52 119.115 1110.01 117.961C1104.68 116.805 1099.43 115.735 1094.27 114.754C1089.12 113.773 1084.54 112.648 1080.54 111.381C1076.54 110.113 1073.29 108.433 1070.81 106.341C1068.32 104.248 1067.07 101.513 1067.07 98.1347C1067.07 95.2904 1067.78 93.0117 1069.2 91.2985C1070.63 89.5862 1072.36 88.2683 1074.41 87.3454C1076.45 86.4225 1078.71 85.8077 1081.2 85.4999C1083.69 85.1914 1086 85.0204 1088.14 84.9851C1094.89 84.8733 1100.76 86.0656 1105.74 88.5611C1110.72 91.0566 1113.48 95.9451 1114.01 103.226L1150.02 102.631C1149.3 94.1086 1147.13 87.0763 1143.48 81.5364C1139.84 75.9956 1135.26 71.5818 1129.75 68.2946C1124.23 65.0075 1117.97 62.7112 1110.94 61.4043C1103.92 60.0983 1096.67 59.507 1089.21 59.6305C1081.74 59.7539 1074.45 60.5413 1067.33 61.9925C1060.22 63.4437 1053.82 65.8609 1048.14 69.2438C1042.44 72.6276 1037.87 77.1929 1034.4 82.9399C1030.93 88.6867 1029.2 96.0052 1029.2 104.895C1029.2 110.941 1030.44 116.032 1032.93 120.169C1035.42 124.307 1038.71 127.719 1042.8 130.407C1046.89 133.095 1051.56 135.241 1056.8 136.844C1062.04 138.446 1067.42 139.824 1072.94 140.977C1086.45 143.599 1096.99 146.269 1104.54 148.989C1112.1 151.709 1115.88 155.914 1115.88 161.603C1115.88 164.981 1115.07 167.796 1113.48 170.044C1111.88 172.293 1109.87 174.104 1107.47 175.478C1105.07 176.851 1102.41 177.873 1099.48 178.544C1096.54 179.215 1093.74 179.572 1091.08 179.616C1087.34 179.678 1083.74 179.293 1080.27 178.461C1076.81 177.629 1073.74 176.302 1071.07 174.479C1068.41 172.657 1066.22 170.292 1064.54 167.386C1062.85 164.48 1062 160.983 1062 156.893Z" fill="black"/>
<path d="M1267.63 129.49C1267.63 123.978 1268.16 118.546 1269.23 113.195C1270.3 107.843 1272.12 103.101 1274.7 98.9689C1277.27 94.8369 1280.7 91.4462 1284.96 88.7979C1289.23 86.1495 1294.57 84.7719 1300.97 84.6662C1307.37 84.5603 1312.75 85.7607 1317.1 88.2665C1321.46 90.7722 1324.93 94.0488 1327.51 98.0956C1330.09 102.142 1331.91 106.824 1332.98 112.141C1334.04 117.457 1334.57 122.871 1334.57 128.383C1334.57 133.895 1334.04 139.283 1332.98 144.545C1331.91 149.808 1330.09 154.55 1327.51 158.771C1324.93 162.992 1321.46 166.383 1317.1 168.944C1312.75 171.505 1307.37 172.839 1300.97 172.945C1294.57 173.051 1289.23 171.894 1284.96 169.475C1280.7 167.057 1277.27 163.78 1274.7 159.644C1272.12 155.509 1270.3 150.827 1269.23 145.599C1268.16 140.372 1267.63 135.002 1267.63 129.49ZM1229.76 130.116C1229.76 141.14 1231.45 151.069 1234.82 159.903C1238.21 168.738 1243.01 176.259 1249.23 182.468C1255.45 188.677 1262.92 193.399 1271.63 196.633C1280.34 199.867 1290.13 201.395 1300.97 201.216C1311.81 201.036 1321.64 199.184 1330.44 195.66C1339.24 192.137 1346.76 187.168 1352.97 180.753C1359.2 174.338 1364 166.658 1367.38 157.711C1370.75 148.765 1372.45 138.781 1372.45 127.757C1372.45 116.733 1370.75 106.76 1367.38 97.8366C1364 88.9132 1359.2 81.3477 1352.97 75.1386C1346.76 68.9293 1339.24 64.1637 1330.44 60.8423C1321.64 57.521 1311.81 55.9496 1300.97 56.129C1290.13 56.3082 1280.34 58.2038 1271.63 61.8148C1262.92 65.4256 1255.45 70.4391 1249.23 76.854C1243.01 83.269 1238.21 90.9932 1234.82 100.028C1231.45 109.064 1229.76 119.093 1229.76 130.116Z" fill="black"/>
<path d="M1455.12 57.3134V195.199L1492.99 194.573V122.296C1492.99 108.25 1495.3 98.1219 1499.93 91.9106C1504.55 85.7001 1512.02 82.5098 1522.33 82.3394C1531.4 82.1894 1537.71 84.8851 1541.27 90.4273C1544.82 95.9695 1546.6 104.43 1546.6 115.809V193.686L1584.48 193.06V108.249C1584.48 99.7141 1583.72 91.948 1582.21 84.9499C1580.69 77.9518 1578.07 72.0381 1574.34 67.2108C1570.61 62.3826 1565.5 58.6443 1559 55.9959C1552.51 53.3474 1544.2 52.1069 1534.06 52.2746C1526.07 52.4068 1518.24 54.3587 1510.6 58.1299C1502.95 61.9011 1496.73 67.8273 1491.93 75.9075L1491.12 75.9208V56.718L1455.12 57.3134Z" fill="black"/>
<path d="M1638.88 123.351C1638.88 117.839 1639.42 112.407 1640.48 107.056C1641.55 101.704 1643.37 96.9621 1645.95 92.8301C1648.52 88.6981 1651.95 85.3075 1656.21 82.6591C1660.48 80.0107 1665.82 78.6331 1672.22 78.5274C1678.62 78.4215 1684 79.6219 1688.36 82.1277C1692.71 84.6335 1696.17 87.9102 1698.76 91.9568C1701.34 96.0036 1703.16 100.685 1704.23 106.002C1705.29 111.318 1705.82 116.732 1705.82 122.244C1705.82 127.756 1705.29 133.144 1704.23 138.407C1703.16 143.669 1701.34 148.411 1698.76 152.632C1696.17 156.853 1692.71 160.244 1688.36 162.805C1684 165.366 1678.62 166.7 1672.22 166.806C1665.82 166.912 1660.48 165.755 1656.21 163.337C1651.95 160.918 1648.52 157.641 1645.95 153.505C1643.37 149.37 1641.55 144.688 1640.48 139.461C1639.42 134.233 1638.88 128.863 1638.88 123.351ZM1601.01 123.977C1601.01 135.001 1602.7 144.93 1606.08 153.764C1609.46 162.599 1614.26 170.12 1620.48 176.329C1626.7 182.539 1634.17 187.26 1642.88 190.494C1651.59 193.728 1661.38 195.256 1672.22 195.077C1683.06 194.898 1692.89 193.046 1701.69 189.522C1710.49 185.998 1718.01 181.029 1724.22 174.614C1730.45 168.199 1735.25 160.519 1738.63 151.572C1742.01 142.627 1743.7 132.642 1743.7 121.618C1743.7 110.595 1742.01 100.621 1738.63 91.6978C1735.25 82.7745 1730.45 75.209 1724.22 68.9998C1718.01 62.7905 1710.49 58.0249 1701.69 54.7035C1692.89 51.3822 1683.06 49.8108 1672.22 49.9902C1661.38 50.1694 1651.59 52.065 1642.88 55.676C1634.17 59.2868 1626.7 64.3003 1620.48 70.7152C1614.26 77.1302 1609.46 84.8544 1606.08 93.8897C1602.7 102.925 1601.01 112.954 1601.01 123.977Z" fill="black"/>
</g>
</g>
<defs>
<clipPath id="clip0_1_26">
<rect width="1744" height="261" fill="white"/>
</clipPath>
<clipPath id="clip1_1_26">
<rect width="1744" height="268" fill="white"/>
</clipPath>
</defs>
</svg>
