<svg width="1744" height="261" viewBox="0 0 1744 261" fill="none" xmlns="http://www.w3.org/2000/svg">
<path d="M37.8717 21.2065L0 21.8328V212.259L37.8717 211.633V21.2065Z" fill="black"/>
<path d="M93.3443 141.906C93.3443 136.394 93.8758 130.962 94.9469 125.611C96.0099 120.259 97.838 115.517 100.415 111.385C102.992 107.253 106.415 103.862 110.683 101.214C114.951 98.5655 120.282 97.1881 126.684 97.0822C133.087 96.9763 138.466 98.1767 142.815 100.683C147.172 103.188 150.643 106.465 153.22 110.512C155.797 114.559 157.625 119.24 158.688 124.557C159.751 129.873 160.29 135.287 160.29 140.799C160.29 146.311 159.751 151.699 158.688 156.961C157.625 162.224 155.797 166.966 153.22 171.187C150.643 175.408 147.172 178.799 142.815 181.36C138.466 183.921 133.087 185.255 126.684 185.361C120.282 185.467 114.951 184.31 110.683 181.891C106.415 179.473 102.992 176.196 100.415 172.06C97.838 167.925 96.0099 163.243 94.9469 158.015C93.8758 152.788 93.3443 147.418 93.3443 141.906ZM55.4702 142.532C55.4702 153.556 57.1614 163.485 60.5438 172.319C63.918 181.154 68.7177 188.675 74.9428 194.884C81.1679 201.093 88.6332 205.815 97.3467 209.049C106.06 212.283 115.837 213.811 126.684 213.632C137.532 213.452 147.349 211.6 156.151 208.077C164.953 204.553 172.467 199.584 178.692 193.169C184.909 186.754 189.717 179.074 193.091 170.127C196.473 161.181 198.156 151.197 198.156 140.173C198.156 129.149 196.473 119.176 193.091 110.253C189.717 101.329 184.909 93.7639 178.692 87.5546C172.467 81.3455 164.953 76.5798 156.151 73.2585C147.349 69.9371 137.532 68.3656 126.684 68.545C115.837 68.7244 106.06 70.6198 97.3467 74.2308C88.6332 77.8418 81.1679 82.8551 74.9428 89.2701C68.7177 95.6851 63.918 103.409 60.5438 112.444C57.1614 121.48 55.4702 131.509 55.4702 142.532Z" fill="black"/>
<path d="M312.842 138.276C312.842 132.587 313.422 127.11 314.573 121.846C315.733 116.582 317.642 111.838 320.307 107.616C322.973 103.393 326.444 100.002 330.712 97.442C334.98 94.8822 340.223 93.5513 346.448 93.4484C352.31 93.3515 357.336 94.602 361.515 97.2001C365.695 99.7974 369.029 103.21 371.517 107.436C374.006 111.662 375.826 116.433 376.985 121.747C378.137 127.063 378.717 132.387 378.717 137.721C378.717 143.411 378.137 148.887 376.985 154.152C375.826 159.416 373.957 164.07 371.38 168.113C368.803 172.156 365.429 175.412 361.249 177.882C357.07 180.352 351.868 181.638 345.65 181.74C339.425 181.843 334.223 180.684 330.043 178.264C325.864 175.844 322.489 172.567 319.912 168.431C317.335 164.295 315.507 159.613 314.444 154.386C313.373 149.159 312.842 143.789 312.842 138.276ZM415.254 253.666V67.5069L379.248 68.1023V85.7049L378.717 85.7137C374.449 78.1386 368.538 72.769 360.984 69.605C353.422 66.4403 345.377 64.9289 336.848 65.0699C326.355 65.2434 317.247 67.4387 309.508 71.6561C301.777 75.8733 295.326 81.4473 290.172 88.3777C285.018 95.3089 281.193 103.239 278.704 112.171C276.216 121.102 274.968 130.279 274.968 139.703C274.968 153.038 276.836 164.254 280.573 173.348C284.301 182.443 289.013 189.744 294.706 195.251C300.4 200.758 306.665 204.654 313.51 206.942C320.355 209.229 326.975 210.32 333.377 210.214C341.914 210.073 350.176 208.336 358.181 205.003C366.186 201.67 372.403 196.233 376.848 188.692L377.38 188.683V254.293L415.254 253.666Z" fill="black"/>
<path d="M565.14 202.914V65.0285L527.274 65.6546V137.932C527.274 151.978 524.962 162.106 520.34 168.317C515.717 174.527 508.244 177.718 497.936 177.889C488.868 178.039 482.554 175.343 478.995 169.801C475.443 164.259 473.664 155.798 473.664 144.418V66.5411L435.79 67.1674V151.979C435.79 160.514 436.547 168.28 438.061 175.278C439.575 182.276 442.192 188.189 445.929 193.017C449.657 197.846 454.771 201.539 461.262 204.099C467.753 206.658 476.064 207.855 486.202 207.687C494.199 207.555 502.027 205.647 509.669 201.965C517.312 198.282 523.537 192.401 528.337 184.321L529.134 184.307V203.509L565.14 202.914Z" fill="black"/>
<path d="M624.886 42.7045V11.5001L587.012 12.1263V43.3308L624.886 42.7045ZM587.012 64.6668V202.552L624.886 201.926V64.0406L587.012 64.6668Z" fill="black"/>
<path d="M739.571 116.286L677.956 117.304C678.133 114.634 678.713 111.602 679.696 108.207C680.67 104.813 682.361 101.584 684.761 98.5222C687.161 95.4602 690.358 92.8738 694.361 90.7629C698.363 88.6512 703.38 87.5463 709.428 87.4463C718.673 87.2935 725.566 89.6687 730.1 94.5722C734.634 99.4757 737.791 106.713 739.571 116.286ZM677.956 141.308L777.437 139.663C778.154 128.982 777.26 118.773 774.771 109.036C772.283 99.2977 768.24 90.6518 762.635 83.0996C757.038 75.5465 749.879 69.5751 741.165 65.1852C732.452 60.7954 722.233 58.6974 710.499 58.8914C700.006 59.0649 690.447 61.0897 681.822 64.9666C673.205 68.8425 665.78 74.0774 659.555 80.6696C653.33 87.2626 648.53 95.0319 645.156 103.978C641.773 112.924 640.082 122.553 640.082 132.865C640.082 143.534 641.733 153.286 645.019 162.121C648.312 170.957 652.975 178.525 659.023 184.826C665.071 191.127 672.448 195.939 681.161 199.262C689.875 202.585 699.651 204.157 710.499 203.978C726.146 203.719 739.474 199.943 750.499 192.649C761.524 185.354 769.706 173.395 775.037 156.771L741.697 157.322C740.457 161.61 737.074 165.711 731.566 169.625C726.05 173.539 719.478 175.559 711.828 175.686C701.165 175.862 692.983 173.241 687.29 167.823C681.604 162.405 678.496 153.567 677.956 141.308Z" fill="black"/>
<path d="M791.844 61.2798V199.165L829.71 198.539V136.398C829.71 130.174 830.338 124.386 831.578 119.031C832.827 113.677 834.912 108.974 837.844 104.926C840.783 100.877 844.649 97.6566 849.449 95.266C854.248 92.8754 860.119 91.6219 867.053 91.5072C869.364 91.469 871.764 91.563 874.252 91.7884C876.741 92.0138 878.875 92.2902 880.655 92.6159V57.4115C877.627 56.5725 874.872 56.1735 872.384 56.2146C867.584 56.294 862.962 57.0815 858.516 58.5772C854.071 60.0737 849.891 62.1424 845.986 64.7856C842.072 67.4282 838.601 70.5973 835.581 74.2921C832.553 77.987 830.153 81.9832 828.381 86.2791L827.85 86.2879V60.6845L791.844 61.2798Z" fill="black"/>
<path d="M885.986 102.13C886.517 93.2301 888.74 85.815 892.654 79.8827C896.567 73.9505 901.544 69.1563 907.592 65.5008C913.632 61.8447 920.437 59.1986 927.991 57.5621C935.545 55.9256 943.147 55.0445 950.797 54.918C957.731 54.8034 964.753 55.1761 971.864 56.0362C978.975 56.897 985.466 58.7007 991.337 61.4488C997.2 64.1963 1002 68.0734 1005.74 73.0787C1009.47 78.0848 1011.33 84.7655 1011.33 93.1223V164.866C1011.33 171.088 1011.7 177.039 1012.4 182.717C1013.11 188.395 1014.36 192.642 1016.14 195.457L977.735 196.092C977.018 193.97 976.447 191.801 975.996 189.587C975.553 187.371 975.247 185.11 975.07 182.8C969.022 189.124 961.911 193.598 953.729 196.222C945.547 198.847 937.196 200.23 928.659 200.371C922.08 200.48 915.943 199.781 910.258 198.274C904.564 196.768 899.587 194.361 895.319 191.054C891.051 187.746 887.717 183.534 885.317 178.418C882.917 173.301 881.717 167.187 881.717 160.074C881.717 152.251 883.094 145.783 885.857 140.67C888.611 135.558 892.162 131.454 896.519 128.358C900.876 125.264 905.853 122.915 911.458 121.311C917.055 119.707 922.7 118.413 928.393 117.43C934.079 116.447 939.684 115.643 945.192 115.019C950.709 114.395 955.597 113.513 959.865 112.376C964.133 111.239 967.508 109.627 969.996 107.541C972.485 105.455 973.644 102.458 973.467 98.5489C973.467 94.4595 972.799 91.226 971.462 88.8474C970.133 86.4695 968.353 84.6314 966.131 83.3354C963.908 82.0385 961.331 81.1921 958.4 80.796C955.46 80.4001 952.303 80.23 948.929 80.2858C941.464 80.4093 935.593 82.1065 931.325 85.3774C927.057 88.6483 924.568 94.0239 923.86 101.503L885.986 102.13ZM973.467 128.686C971.865 130.136 969.867 131.28 967.467 132.12C965.068 132.96 962.483 133.669 959.728 134.248C956.974 134.827 954.083 135.319 951.063 135.725C948.043 136.13 945.015 136.624 941.995 137.208C939.153 137.788 936.35 138.546 933.596 139.48C930.834 140.415 928.434 141.655 926.388 143.2C924.351 144.746 922.7 146.684 921.46 149.016C920.212 151.348 919.591 154.292 919.591 157.848C919.591 161.226 920.212 164.061 921.46 166.352C922.7 168.642 924.391 170.437 926.525 171.735C928.659 173.034 931.148 173.926 933.991 174.412C936.841 174.899 939.773 175.117 942.793 175.067C950.258 174.943 956.04 173.603 960.131 171.046C964.222 168.489 967.242 165.461 969.199 161.962C971.156 158.462 972.356 154.931 972.799 151.367C973.242 147.804 973.467 144.955 973.467 142.822V128.686Z" fill="black"/>
<path d="M1062.01 149.892L1026.01 150.487C1026.36 159.727 1028.45 167.383 1032.27 173.454C1036.1 179.524 1040.99 184.378 1046.94 188.013C1052.9 191.648 1059.7 194.203 1067.34 195.677C1074.99 197.151 1082.81 197.822 1090.82 197.689C1098.64 197.56 1106.33 196.677 1113.88 195.041C1121.44 193.404 1128.15 190.671 1134.02 186.84C1139.89 183.009 1144.65 177.997 1148.29 171.803C1151.93 165.607 1153.75 157.977 1153.75 148.909C1153.75 142.508 1152.51 137.15 1150.03 132.835C1147.54 128.52 1144.24 124.929 1140.15 122.063C1136.07 119.197 1131.4 116.918 1126.16 115.227C1120.9 113.536 1115.53 112.114 1110.02 110.96C1104.69 109.804 1099.43 108.734 1094.28 107.753C1089.13 106.771 1084.54 105.647 1080.55 104.38C1076.55 103.112 1073.3 101.432 1070.81 99.3399C1068.33 97.247 1067.08 94.5118 1067.08 91.1335C1067.08 88.2891 1067.79 86.0104 1069.21 84.2973C1070.64 82.585 1072.37 81.2671 1074.41 80.3442C1076.46 79.4213 1078.72 78.8064 1081.21 78.4987C1083.7 78.1902 1086.01 78.0191 1088.14 77.9838C1094.9 77.8721 1100.77 79.0644 1105.75 81.5599C1110.73 84.0554 1113.49 88.9439 1114.02 96.2248L1150.03 95.6295C1149.31 87.1074 1147.13 80.0751 1143.49 74.5352C1139.85 68.9944 1135.26 64.5806 1129.76 61.2933C1124.24 58.0063 1117.97 55.71 1110.95 54.4031C1103.93 53.097 1096.68 52.5058 1089.22 52.6293C1081.75 52.7527 1074.45 53.5401 1067.34 54.9913C1060.23 56.4425 1053.83 58.8596 1048.14 62.2426C1042.45 65.6264 1037.88 70.1917 1034.41 75.9387C1030.94 81.6855 1029.2 89.004 1029.2 97.8939C1029.2 103.939 1030.45 109.031 1032.94 113.168C1035.43 117.305 1038.72 120.718 1042.81 123.406C1046.9 126.094 1051.57 128.24 1056.81 129.843C1062.05 131.445 1067.43 132.823 1072.95 133.976C1086.46 136.598 1096.99 139.268 1104.55 141.988C1112.11 144.708 1115.89 148.912 1115.89 154.602C1115.89 157.98 1115.08 160.794 1113.49 163.043C1111.89 165.292 1109.88 167.103 1107.48 168.476C1105.08 169.85 1102.41 170.872 1099.48 171.542C1096.55 172.213 1093.75 172.571 1091.08 172.615C1087.35 172.677 1083.75 172.292 1080.28 171.46C1076.81 170.628 1073.75 169.301 1071.08 167.478C1068.41 165.656 1066.23 163.291 1064.55 160.385C1062.86 157.479 1062.01 153.982 1062.01 149.892Z" fill="black"/>
<path d="M1267.64 122.488C1267.64 116.977 1268.17 111.545 1269.24 106.194C1270.31 100.842 1272.13 96.0997 1274.7 91.9677C1277.28 87.8357 1280.71 84.445 1284.97 81.7967C1289.24 79.1483 1294.58 77.7707 1300.97 77.665C1307.38 77.5591 1312.76 78.7595 1317.11 81.2652C1321.47 83.771 1324.94 87.0476 1327.52 91.0944C1330.09 95.1412 1331.91 99.823 1332.98 105.14C1334.05 110.456 1334.58 115.87 1334.58 121.382C1334.58 126.894 1334.05 132.281 1332.98 137.544C1331.91 142.807 1330.09 147.549 1327.52 151.769C1324.94 155.991 1321.47 159.381 1317.11 161.943C1312.76 164.504 1307.38 165.838 1300.97 165.944C1294.58 166.05 1289.24 164.893 1284.97 162.474C1280.71 160.055 1277.28 156.779 1274.7 152.643C1272.13 148.507 1270.31 143.826 1269.24 138.598C1268.17 133.371 1267.64 128.001 1267.64 122.488ZM1229.77 123.115C1229.77 134.139 1231.46 144.068 1234.83 152.902C1238.22 161.737 1243.01 169.258 1249.24 175.467C1255.46 181.676 1262.93 186.397 1271.64 189.632C1280.35 192.866 1290.13 194.394 1300.97 194.214C1311.82 194.035 1321.65 192.183 1330.45 188.659C1339.25 185.135 1346.76 180.166 1352.98 173.751C1359.21 167.336 1364.01 159.657 1367.39 150.71C1370.76 141.764 1372.45 131.779 1372.45 120.755C1372.45 109.732 1370.76 99.7589 1367.39 90.8354C1364.01 81.912 1359.21 74.3465 1352.98 68.1374C1346.76 61.9281 1339.25 57.1624 1330.45 53.8411C1321.65 50.5198 1311.82 48.9484 1300.97 49.1278C1290.13 49.307 1280.35 51.2026 1271.64 54.8136C1262.93 58.4244 1255.46 63.4379 1249.24 69.8528C1243.01 76.2678 1238.22 83.992 1234.83 93.0272C1231.46 102.062 1229.77 112.091 1229.77 123.115Z" fill="black"/>
<path d="M1455.13 50.3122V188.198L1493 187.572V115.295C1493 101.249 1495.31 91.1207 1499.94 84.9094C1504.56 78.6989 1512.03 75.5086 1522.34 75.3382C1531.41 75.1882 1537.72 77.8839 1541.28 83.426C1544.83 88.9683 1546.61 97.4285 1546.61 108.808V186.685L1584.49 186.059V101.248C1584.49 92.7129 1583.73 84.9468 1582.21 77.9487C1580.7 70.9506 1578.08 65.0369 1574.35 60.2096C1570.62 55.3814 1565.5 51.6431 1559.01 48.9946C1552.52 46.3462 1544.21 45.1057 1534.07 45.2733C1526.08 45.4056 1518.25 47.3574 1510.61 51.1287C1502.96 54.8999 1496.74 60.8261 1491.94 68.9063L1491.13 68.9196V49.7168L1455.13 50.3122Z" fill="black"/>
<path d="M1638.89 116.35C1638.89 110.838 1639.42 105.406 1640.49 100.055C1641.56 94.7029 1643.38 89.9609 1645.96 85.8289C1648.53 81.6969 1651.95 78.3063 1656.22 75.6579C1660.49 73.0095 1665.83 71.6319 1672.22 71.5262C1678.63 71.4203 1684.01 72.6207 1688.36 75.1265C1692.72 77.6322 1696.18 80.909 1698.77 84.9556C1701.35 89.0024 1703.17 93.6842 1704.24 99.0009C1705.3 104.317 1705.83 109.731 1705.83 115.243C1705.83 120.755 1705.3 126.143 1704.24 131.405C1703.17 136.668 1701.35 141.41 1698.77 145.631C1696.18 149.852 1692.72 153.243 1688.36 155.804C1684.01 158.365 1678.63 159.699 1672.22 159.805C1665.83 159.911 1660.49 158.754 1656.22 156.335C1651.95 153.917 1648.53 150.64 1645.96 146.504C1643.38 142.369 1641.56 137.687 1640.49 132.459C1639.42 127.232 1638.89 121.862 1638.89 116.35ZM1601.02 116.976C1601.02 128 1602.71 137.929 1606.08 146.763C1609.47 155.598 1614.27 163.119 1620.49 169.328C1626.71 175.537 1634.18 180.259 1642.89 183.493C1651.6 186.727 1661.39 188.255 1672.22 188.076C1683.07 187.896 1692.9 186.044 1701.7 182.52C1710.5 178.997 1718.02 174.028 1724.23 167.613C1730.46 161.198 1735.26 153.518 1738.64 144.571C1742.01 135.625 1743.7 125.64 1743.7 114.617C1743.7 103.593 1742.01 93.6201 1738.64 84.6966C1735.26 75.7732 1730.46 68.2077 1724.23 61.9986C1718.02 55.7893 1710.5 51.0237 1701.7 47.7023C1692.9 44.381 1683.07 42.8096 1672.22 42.989C1661.39 43.1682 1651.6 45.0638 1642.89 48.6748C1634.18 52.2856 1626.71 57.2991 1620.49 63.714C1614.27 70.129 1609.47 77.8532 1606.08 86.8884C1602.71 95.9235 1601.02 105.953 1601.02 116.976Z" fill="black"/>
</svg>
