<svg class="w-full" viewBox="0 0 158 176" fill="none" xmlns="http://www.w3.org/2000/svg">
<path d="M61.6069 161.69C61.6069 162.294 62.0972 162.785 62.7014 162.785C63.3008 162.785 63.7956 162.294 63.7956 161.69V156.483C62.8698 156.356 61.6069 155.97 61.6069 155.97V161.69Z" fill="white"/>
<path d="M65.7034 164.972C65.7034 165.575 66.1975 166.065 66.7978 166.065C67.4018 166.065 67.8911 165.575 67.8911 164.972V157.147C66.7891 157.063 65.7034 156.535 65.7034 156.535V164.972Z" fill="white"/>
<path d="M69.8049 157.43V168.163C69.8049 168.768 70.2961 169.255 70.9009 169.255C71.5006 169.255 71.9927 168.768 71.9927 168.163V157.315C70.8119 157.576 69.8049 157.43 69.8049 157.43Z" fill="white"/>
<path d="M73.9058 158.186V171.354C73.9058 171.958 74.3969 172.448 75.0002 172.448C75.5996 172.448 76.0908 171.958 76.0908 171.354V159.622C74.5608 159.081 73.9058 158.186 73.9058 158.186Z" fill="white"/>
<path d="M78.0063 174.126C78.0063 174.732 78.4957 175.221 79.099 175.221C79.7002 175.221 80.1917 174.732 80.1917 174.126V160.156H78.0082L78.0063 174.126Z" fill="white"/>
<path d="M94.3989 161.69C94.3989 162.294 94.8931 162.785 95.4925 162.785C96.0955 162.785 96.5867 162.294 96.5867 161.69V155.97C96.5867 155.97 95.3238 156.356 94.3989 156.483V161.69Z" fill="white"/>
<path d="M90.3025 164.972C90.3025 165.575 90.793 166.065 91.3961 166.065C91.9964 166.065 92.4902 165.575 92.4902 164.972V156.535C92.4902 156.535 91.4045 157.063 90.3025 157.147V164.972Z" fill="white"/>
<path d="M86.2017 157.315V168.163C86.2017 168.768 86.6928 169.255 87.2922 169.255C87.8985 169.255 88.3885 168.768 88.3885 168.163V157.43C88.3885 157.43 87.3827 157.576 86.2017 157.315Z" fill="white"/>
<path d="M82.1025 159.622V171.354C82.1025 171.958 82.594 172.448 83.1934 172.448C83.7973 172.448 84.2879 171.958 84.2879 171.354V158.186C84.2879 158.186 83.6316 159.081 82.1025 159.622Z" fill="white"/>
<path d="M8.85219 88.2401C9.1487 87.3677 8.71934 85.8765 8.50681 85.2457C7.98523 85.7955 6.71488 87.2441 6.32801 88.6825C6.08626 89.5648 6.35041 91.1572 6.49005 91.8661C7.04075 91.2843 8.30464 89.835 8.85219 88.2401Z" fill="white"/>
<path d="M5.34293 80.4783C5.58956 80.2807 5.964 79.9664 6.37514 79.5534C6.7132 79.111 7.09697 78.6641 7.51382 78.2229C7.76886 77.8613 7.98722 77.4983 8.15835 77.1416C8.56678 76.2899 8.3391 74.6507 8.21399 73.9629C7.63713 74.439 6.2013 75.7178 5.61482 77.1509C5.26383 78.0165 5.30143 79.7285 5.34293 80.4783Z" fill="white"/>
<path d="M5.47458 74.6603C6.13887 74.2339 7.68887 73.1251 8.53443 71.6452C8.99724 70.8334 8.82397 69.1469 8.72193 68.4336C8.09558 68.8441 6.54062 69.9504 5.87683 71.315C5.47761 72.1393 5.46231 73.8898 5.47458 74.6603Z" fill="white"/>
<path d="M10.3575 60.607C10.8967 59.9836 11.0052 58.5073 11.0204 57.8576C10.3618 58.1301 8.76274 58.8759 7.95003 59.9851C7.45152 60.6501 7.16935 62.1651 7.05968 62.8622C7.75715 62.5643 9.34891 61.7957 10.3575 60.607Z" fill="white"/>
<path d="M9.77781 93.6387C9.98836 92.8198 9.50504 91.4991 9.26421 90.9189C8.80446 91.4847 7.74635 92.9073 7.47262 94.2583C7.30178 95.0668 7.6486 96.4964 7.82253 97.1619C8.3115 96.5603 9.375 95.1339 9.77781 93.6387Z" fill="white"/>
<path d="M11.2105 99.0218C11.3649 98.187 10.7636 96.9073 10.4769 96.3488C10.054 96.9527 9.07951 98.4705 8.9048 99.8513C8.79961 100.677 9.25168 102.075 9.48414 102.714C9.93609 102.083 10.9194 100.573 11.2105 99.0218Z" fill="white"/>
<path d="M12.9998 104.314C13.0875 103.523 12.4221 102.347 12.098 101.836C11.727 102.453 10.905 103.96 10.8529 105.275C10.815 106.069 11.3678 107.377 11.6458 107.98C12.0309 107.327 12.8424 105.805 12.9998 104.314Z" fill="white"/>
<path d="M15.9159 115.624C16.0169 116.443 16.8129 117.702 17.1931 118.271C17.4704 117.558 18.027 115.892 17.9309 114.354C17.8782 113.514 16.9799 112.403 16.5659 111.928C16.3024 112.607 15.7392 114.273 15.9159 115.624Z" fill="white"/>
<path d="M26.1777 125.865C26.0674 126.546 25.8946 128.163 26.3648 129.317C26.6519 130.031 27.684 130.964 28.191 131.391C28.3056 130.678 28.4738 129.063 28.0426 127.716C27.8008 126.984 26.6932 126.201 26.1777 125.865Z" fill="white"/>
<path d="M29.9526 129.668C29.8998 130.381 29.8486 132.138 30.473 133.35C30.8421 134.095 32.0513 135.005 32.6222 135.407C32.6709 134.658 32.711 132.92 32.1219 131.493C31.7961 130.73 30.525 129.977 29.9526 129.668Z" fill="white"/>
<path d="M34.5427 133.829C34.5617 134.502 34.6788 136.075 35.3416 137.136C35.7314 137.773 36.8799 138.516 37.443 138.857C37.43 138.155 37.3262 136.577 36.6623 135.337C36.3065 134.671 35.1054 134.08 34.5427 133.829Z" fill="white"/>
<path d="M6.03781 68.7193C6.71184 68.3573 8.27291 67.4162 9.19701 66.0833C9.69805 65.3471 9.68084 63.7563 9.64217 63.0697C9.00526 63.4144 7.43669 64.3548 6.70633 65.5939C6.25472 66.3533 6.08951 67.9846 6.03781 68.7193Z" fill="white"/>
<path d="M38.9898 137.094C39.0647 137.771 39.3058 139.372 40.0775 140.402C40.539 141.026 41.8052 141.714 42.4138 142.02C42.329 141.305 42.0571 139.703 41.2722 138.479C40.856 137.83 39.5764 137.308 38.9898 137.094Z" fill="white"/>
<path d="M13.2362 110.511C13.2608 111.263 13.8702 112.438 14.1775 112.994C14.5015 112.342 15.1392 110.866 15.1812 109.476C15.198 108.715 14.4892 107.665 14.1379 107.194C13.8329 107.815 13.1838 109.285 13.2362 110.511Z" fill="white"/>
<path d="M22.5435 121.332C22.3737 122.035 22.0293 123.773 22.4475 125.081C22.6928 125.878 23.7634 126.99 24.2631 127.485C24.4398 126.738 24.7614 124.991 24.3972 123.473C24.2022 122.667 23.0559 121.724 22.5435 121.332Z" fill="white"/>
<path d="M19.2151 116.512C19.0278 117.225 18.6374 119.035 18.995 120.491C19.2058 121.367 20.2128 122.679 20.669 123.249C20.768 122.891 20.9129 122.294 20.9992 121.595C21.0143 121.282 21.0447 120.961 21.0801 120.625C21.0991 120.051 21.0624 119.519 20.9749 119.035C20.8092 118.133 19.7027 116.983 19.2151 116.512Z" fill="white"/>
<path d="M147.222 57.7747C147.251 58.4392 147.372 59.9459 147.902 60.5907C148.895 61.8199 150.451 62.63 151.131 62.9454C151.016 62.2329 150.724 60.684 150.232 59.9974C149.432 58.8527 147.872 58.0655 147.222 57.7747Z" fill="white"/>
<path d="M142.732 46.7788C142.887 47.4597 143.337 49.0778 144.047 49.7076C145.385 50.8776 147.209 51.5118 147.968 51.7402C147.712 51.0268 147.082 49.4136 146.403 48.7369C145.304 47.623 143.459 46.9921 142.732 46.7788Z" fill="white"/>
<path d="M146.317 55.2532C147.357 56.2799 148.911 56.8611 149.608 57.0803C149.449 56.4357 149.07 55.0753 148.549 54.4944C147.698 53.5288 146.151 52.9341 145.492 52.7176C145.56 53.3369 145.764 54.6972 146.317 55.2532Z" fill="white"/>
<path d="M151.798 56.642C152.184 56.0468 152.961 54.6766 153.013 53.3067C153.073 51.8689 152.28 50.4778 151.951 49.9609C151.56 50.4584 150.604 51.8623 150.871 53.423C151.06 54.636 151.557 56.0113 151.798 56.642Z" fill="white"/>
<path d="M39.1567 16.3102C39.5501 16.4485 40.235 16.6687 41.0443 16.8212C41.2437 16.8521 41.447 16.8831 41.6317 16.9171C42.2997 17.0064 42.9162 17.0281 43.4684 16.9715C44.4158 16.8786 45.9151 15.9273 46.5584 15.4933C46.5416 15.4876 46.5208 15.4807 46.5028 15.4744C56.0104 10.932 67.0038 7.77822 79.0983 7.77822C91.2586 7.77822 102.027 10.7542 111.553 15.3231C112.259 15.7853 113.629 16.6245 114.515 16.7102C116.238 16.8747 118.073 16.312 118.82 16.0476C118.19 15.6205 116.732 14.6888 115.81 14.5513C115.006 14.4226 114.054 14.5408 113.213 14.7231C113.167 14.681 113.118 14.6425 113.059 14.6136C103.125 9.69977 92.1043 6.48044 79.0983 6.48044C66.0919 6.48044 54.7737 9.92534 44.8387 14.8392C44.7734 14.8716 44.7181 14.9156 44.6694 14.9646C43.8519 14.794 42.94 14.6882 42.1679 14.8103C41.2476 14.9513 39.7862 15.8819 39.1567 16.3102Z" fill="white"/>
<path d="M149.647 50.552C149.984 49.9326 150.644 48.5309 150.606 47.1992C150.583 45.813 149.711 44.5305 149.342 44.0516C148.998 44.5867 148.168 46.0615 148.529 47.5325C148.797 48.6724 149.364 49.9561 149.647 50.552Z" fill="white"/>
<path d="M143.961 43.4745C142.782 42.5188 140.832 42.1359 140.068 42.02C140.255 42.6815 140.769 44.2463 141.539 44.7955C142.948 45.78 144.894 46.1671 145.698 46.2904C145.407 45.6085 144.689 44.0645 143.961 43.4745Z" fill="white"/>
<path d="M138.697 39.9827C140.209 40.8915 142.198 41.1543 143.014 41.2309C142.658 40.5615 141.803 39.044 141.026 38.5087C139.757 37.6192 137.766 37.3801 136.996 37.3204C137.242 37.9683 137.888 39.504 138.697 39.9827Z" fill="white"/>
<path d="M152.606 77.1513C152.022 75.7181 150.584 74.4393 150.005 73.9632C149.882 74.651 149.659 76.2902 150.065 77.1419C150.236 77.4986 150.45 77.8616 150.71 78.2232C151.122 78.6644 151.505 79.1113 151.848 79.5537C152.255 79.9667 152.632 80.281 152.88 80.4786C152.918 79.7288 152.963 78.0159 152.606 77.1513Z" fill="white"/>
<path d="M141.205 34.8309C141.412 34.1449 141.8 32.6091 141.473 31.3357C141.121 29.992 139.944 28.9949 139.47 28.6353C139.216 29.2466 138.678 30.8718 139.373 32.2013C139.906 33.25 140.779 34.3341 141.205 34.8309Z" fill="white"/>
<path d="M144.401 39.8423C144.659 39.1659 145.146 37.6705 144.933 36.394C144.684 35.0467 143.617 33.9655 143.181 33.5642C142.888 34.1566 142.249 35.7226 142.814 37.0814C143.254 38.1528 144.025 39.3065 144.401 39.8423Z" fill="white"/>
<path d="M147.288 45.0527C147.348 44.8993 147.426 44.7149 147.505 44.489C147.581 44.1871 147.657 43.9263 147.739 43.7053C147.919 42.9609 147.974 42.2863 147.908 41.7028C147.749 40.3383 146.806 39.162 146.416 38.7235C146.133 39.2645 145.479 40.7383 145.943 42.1789C146.295 43.2782 146.96 44.4863 147.288 45.0527Z" fill="white"/>
<path d="M149.712 71.6045C150.587 73.0882 152.152 74.2249 152.815 74.6647C152.805 73.9053 152.736 72.1787 152.309 71.3526C151.62 69.9878 150.058 68.8546 149.429 68.4319C149.351 69.1327 149.233 70.7905 149.712 71.6045Z" fill="white"/>
<path d="M152.553 86.5178C152.663 85.7301 152.866 83.866 152.565 82.9063C152.332 82.1619 151.864 81.3553 151.179 80.5237C151.02 80.3468 150.856 80.1577 150.696 79.9676C150.435 79.6861 150.212 79.465 150.049 79.3143C149.869 80.0193 149.484 81.7667 149.845 82.6955C150.523 84.4495 151.957 85.9485 152.553 86.5178Z" fill="white"/>
<path d="M148.578 63.0697C148.541 63.7566 148.523 65.3491 149.023 66.083C149.95 67.416 151.512 68.3574 152.187 68.7194C152.132 67.9851 151.972 66.3533 151.516 65.5913C150.781 64.3549 149.218 63.4142 148.578 63.0697Z" fill="white"/>
<path d="M37.1431 17.8045C36.1163 18.0463 34.5704 19.2261 33.9409 19.7326C34.1584 19.7946 34.4688 19.8737 34.8339 19.9519C36.1305 19.9179 37.3293 20.0695 38.1218 20.203C38.3831 20.1832 38.5952 20.1579 38.7973 20.1203C39.8445 19.9347 41.2043 18.6333 41.7276 18.0953C40.9456 17.8845 38.834 17.4008 37.1431 17.8045Z" fill="white"/>
<path d="M43.8786 140.249C44.0074 140.878 44.3741 142.3 45.1402 143.175C45.6097 143.713 46.7727 144.258 47.3563 144.507C47.2172 143.845 46.8454 142.424 46.0531 141.382C45.6145 140.816 44.4423 140.415 43.8786 140.249Z" fill="white"/>
<path d="M150.749 94.2563C150.477 92.9073 149.414 91.4843 148.955 90.9184C148.718 91.5006 148.231 92.8193 148.451 93.6388C148.847 95.1338 149.912 96.5601 150.394 97.1613C150.574 96.4963 150.92 95.0666 150.749 94.2563Z" fill="white"/>
<path d="M146.405 107.976C146.705 107.355 147.313 106.011 147.317 105.214C147.343 103.895 146.616 102.434 146.29 101.835C145.95 102.366 145.24 103.583 145.283 104.372C145.362 105.86 146.065 107.342 146.405 107.976Z" fill="white"/>
<path d="M151.896 88.6831C151.504 87.2442 150.24 85.7956 149.712 85.2462C149.507 85.8765 149.078 87.3683 149.37 88.2407C149.916 89.835 151.184 91.2845 151.73 91.8664C151.871 91.1575 152.135 89.5653 151.896 88.6831Z" fill="white"/>
<path d="M149.317 99.8513C149.138 98.4706 148.166 96.9529 147.745 96.3489C147.46 96.9075 146.856 98.1866 147.012 99.0217C147.303 100.573 148.287 102.083 148.739 102.714C148.97 102.075 149.423 100.677 149.317 99.8513Z" fill="white"/>
<path d="M107.808 145.575C108.741 144.705 109.34 143.302 109.571 142.691C108.967 142.849 107.682 143.243 107.141 143.803C106.155 144.835 105.55 146.239 105.309 146.881C105.947 146.635 107.247 146.103 107.808 145.575Z" fill="white"/>
<path d="M133.608 32.7716C133.938 33.3826 134.783 34.8148 135.625 35.2784C137.185 36.1364 139.088 36.376 139.869 36.4428C139.43 35.8198 138.406 34.4321 137.6 33.9325C136.253 33.0987 134.352 32.8417 133.608 32.7716Z" fill="white"/>
<path d="M99.9436 148.772C100.576 148.595 101.882 148.195 102.46 147.706C103.429 146.899 104.086 145.488 104.344 144.875C103.74 144.967 102.445 145.22 101.891 145.742C100.853 146.715 100.202 148.127 99.9436 148.772Z" fill="white"/>
<path d="M91.3839 150.691C92.6474 149.944 93.6441 148.39 94.0129 147.758C93.3353 147.744 91.7623 147.776 91.0056 148.286C90.5436 148.606 90.0795 149.025 89.6239 149.536L89.5385 149.635L89.4681 149.721C88.8951 150.397 88.4762 151.061 88.2512 151.438C88.9806 151.366 90.6113 151.158 91.3839 150.691Z" fill="white"/>
<path d="M115.81 142.02C116.415 141.714 117.682 141.025 118.144 140.402C118.917 139.371 119.157 137.77 119.234 137.094C118.645 137.308 117.367 137.83 116.954 138.479C116.165 139.703 115.894 141.305 115.81 142.02Z" fill="white"/>
<path d="M56.3047 145.798C55.7248 145.279 54.4058 144.991 53.7928 144.881C54.0718 145.475 54.7816 146.846 55.789 147.653C56.39 148.139 57.7241 148.569 58.3704 148.761C58.0863 148.136 57.3801 146.764 56.3047 145.798Z" fill="white"/>
<path d="M99.107 146.579C98.4952 146.636 97.1425 146.807 96.5347 147.298C95.3804 148.228 94.5618 149.628 94.2337 150.262C94.9013 150.128 96.2993 149.803 96.939 149.342C98.012 148.586 98.8028 147.182 99.107 146.579Z" fill="white"/>
<path d="M152.605 59.1409C152.696 60.3358 153.063 61.7231 153.251 62.3706C153.672 61.8037 154.539 60.5081 154.714 59.1858C154.872 57.7926 154.22 56.3749 153.936 55.8371C153.516 56.3034 152.483 57.6104 152.605 59.1409Z" fill="white"/>
<path d="M110.866 144.507C111.452 144.258 112.613 143.713 113.082 143.175C113.848 142.299 114.213 140.878 114.348 140.249C113.781 140.415 112.603 140.816 112.167 141.382C111.377 142.425 111.002 143.845 110.866 144.507Z" fill="white"/>
<path d="M68.6802 149.635C68.6802 149.635 68.5966 149.536 68.5966 149.539C68.1422 149.025 67.6763 148.606 67.217 148.286C66.4624 147.776 64.8843 147.744 64.2058 147.758C64.5757 148.39 65.574 149.944 66.8369 150.691C67.6095 151.157 69.2375 151.366 69.9714 151.438C69.7455 151.061 69.3268 150.396 68.7509 149.721L68.6802 149.635Z" fill="white"/>
<path d="M61.6813 147.336C61.0585 146.853 59.6797 146.668 59.0537 146.604C59.3709 147.191 60.1912 148.559 61.2865 149.305C61.9451 149.76 63.3706 150.095 64.0479 150.235C63.7067 149.617 62.8608 148.253 61.6813 147.336Z" fill="white"/>
<path d="M126.205 131.555C125.553 133.004 125.48 134.72 125.48 135.456C126.048 135.022 127.25 134.041 127.655 133.282C128.32 132.044 128.386 130.312 128.381 129.611C127.814 129.954 126.561 130.78 126.205 131.555Z" fill="white"/>
<path d="M120.779 138.857C121.343 138.517 122.491 137.773 122.884 137.133C123.541 136.075 123.658 134.501 123.676 133.83C123.114 134.08 121.92 134.671 121.557 135.337C120.898 136.577 120.794 138.155 120.779 138.857Z" fill="white"/>
<path d="M48.756 142.701C48.9539 143.332 49.4811 144.778 50.3716 145.642C50.9045 146.167 52.1765 146.654 52.8014 146.877C52.5924 146.214 52.0605 144.769 51.1291 143.736C50.6226 143.176 49.3551 142.834 48.756 142.701Z" fill="white"/>
<path d="M130.27 127.758C129.797 129.126 129.88 130.731 129.952 131.438C130.447 130.985 131.469 130.001 131.773 129.272C132.274 128.095 132.187 126.488 132.123 125.813C131.615 126.175 130.531 127.013 130.27 127.758Z" fill="white"/>
<path d="M143.937 112.985C144.264 112.419 144.903 111.226 144.961 110.474C145.057 109.25 144.469 107.809 144.19 107.201C143.826 107.683 143.085 108.755 143.071 109.514C143.056 110.898 143.642 112.346 143.937 112.985Z" fill="white"/>
<path d="M133.903 123.498C133.515 125.039 133.769 126.787 133.91 127.533C134.401 127.018 135.444 125.862 135.7 125.052C136.135 123.721 135.856 121.983 135.716 121.281C135.22 121.692 134.109 122.68 133.903 123.498Z" fill="white"/>
<path d="M140.291 114.354C140.193 115.892 140.752 117.558 141.028 118.271C141.411 117.702 142.207 116.443 142.31 115.624C142.484 114.273 141.919 112.607 141.657 111.928C141.239 112.403 140.342 113.514 140.291 114.354Z" fill="white"/>
<path d="M137.249 119.035C137.157 119.519 137.125 120.051 137.144 120.609C137.18 120.961 137.206 121.282 137.222 121.58C137.312 122.287 137.454 122.891 137.552 123.248C138.009 122.679 139.016 121.367 139.226 120.491C139.586 119.035 139.191 117.225 139.008 116.512C138.52 116.984 137.412 118.133 137.249 119.035Z" fill="white"/>
<path d="M8.37482 82.6955C8.73994 81.7668 8.35677 80.0193 8.17151 79.3144C8.01331 79.465 7.78744 79.6834 7.53359 79.9562C7.36607 80.1577 7.20035 80.3469 7.04516 80.5153C6.35732 81.3553 5.89145 82.162 5.66016 82.9063C5.35218 83.8661 5.55941 85.7302 5.66858 86.5179C6.26499 85.9485 7.70112 84.4495 8.37482 82.6955Z" fill="white"/>
<path d="M69.4306 153.412C68.782 153.313 67.3993 153.132 66.218 153.189C64.6718 153.259 63.4266 154.344 62.9875 154.778C63.5259 154.977 64.9544 155.418 66.3384 155.096C67.6556 154.792 68.8917 153.86 69.4306 153.412Z" fill="white"/>
<path d="M69.1443 155.709C69.6817 155.881 71.0114 156.224 72.2439 155.924C71.9579 155.334 71.7453 154.703 71.6192 154.039C70.4054 154.336 69.4983 155.287 69.1443 155.709Z" fill="white"/>
<path d="M72.3362 148.911C71.5515 148.679 70.4155 148.747 69.8669 148.799C70.1794 149.238 70.8549 150.134 71.7103 150.801L71.7133 150.805C71.8781 150.14 72.1196 149.51 72.4499 148.928C72.4454 148.933 72.4396 148.938 72.436 148.944L72.3362 148.911Z" fill="white"/>
<path d="M154.359 68.0481C154.817 67.5527 155.748 66.4257 155.979 65.1757C156.227 63.8663 155.637 62.4652 155.37 61.9228C154.922 62.3261 153.829 63.4586 153.87 64.9434C153.895 66.0762 154.204 67.414 154.359 68.0481Z" fill="white"/>
<path d="M16.6997 121.813C15.7071 120.819 14.218 120.714 13.6267 120.714C13.8495 121.241 14.4689 122.51 15.5409 123.228C16.557 123.909 17.9329 124.104 18.5885 124.16C18.2361 123.64 17.4893 122.583 16.6997 121.813Z" fill="white"/>
<path d="M137.654 30.1139C137.812 29.4037 138.071 27.823 137.634 26.549C137.168 25.2317 135.896 24.3129 135.384 23.9862C135.182 24.6281 134.775 26.3237 135.566 27.5984C136.198 28.612 137.183 29.646 137.654 30.1139Z" fill="white"/>
<path d="M86.4867 150.821V150.82C87.3523 150.148 88.0441 149.242 88.3496 148.798C87.7993 148.747 86.6534 148.679 85.8621 148.921L85.7622 148.952C86.0849 149.539 86.3306 150.177 86.4876 150.846C86.4867 150.839 86.4867 150.829 86.4867 150.821Z" fill="white"/>
<path d="M92.0162 153.168C90.8367 153.131 89.4479 153.341 88.8005 153.453C89.3351 153.903 90.5553 154.833 91.8668 155.121C93.2468 155.426 94.6806 154.949 95.2286 154.737C94.7961 154.301 93.5597 153.213 92.0162 153.168Z" fill="white"/>
<path d="M86.4986 154.031C86.5007 154.021 86.5001 154.011 86.5 154.001C86.4067 154.645 86.2188 155.251 85.9562 155.814C87.225 156.177 88.568 155.908 89.1112 155.769C88.7272 155.34 87.7561 154.369 86.4986 154.031Z" fill="white"/>
<path d="M28.5734 135.2C27.3654 134.446 25.8876 134.626 25.3039 134.737C25.6641 135.199 26.609 136.295 27.8285 136.755C28.9934 137.207 30.3653 137.126 31.0102 137.055C30.527 136.628 29.5213 135.774 28.5734 135.2Z" fill="white"/>
<path d="M26.5226 133.074C26.09 132.62 25.1715 131.707 24.2785 131.075C23.1201 130.25 21.6574 130.317 21.0784 130.384C21.3891 130.856 22.212 131.989 23.3906 132.542C24.5052 133.067 25.8756 133.095 26.5226 133.074Z" fill="white"/>
<path d="M20.299 126.605C19.2692 125.732 17.8371 125.715 17.2571 125.752C17.5288 126.248 18.2348 127.408 19.3162 128.029C20.3459 128.601 21.6833 128.714 22.3231 128.73C21.9368 128.248 21.1172 127.291 20.299 126.605Z" fill="white"/>
<path d="M33.5186 139.166C32.1033 138.433 30.506 138.786 29.9131 138.958C30.3309 139.41 31.4622 140.549 32.8608 140.971C34.1888 141.37 35.7066 141.15 36.384 141.016C35.837 140.6 34.6459 139.724 33.5186 139.166Z" fill="white"/>
<path d="M57.6538 151.066C57.043 150.843 55.756 150.402 54.6116 150.239C53.1502 150.009 51.8281 150.898 51.3445 151.272C51.8489 151.581 53.1557 152.294 54.5043 152.227C55.0923 152.197 55.7428 152.025 56.421 151.728C56.646 151.603 56.9019 151.476 57.1606 151.361C57.3594 151.249 57.5182 151.151 57.6538 151.066Z" fill="white"/>
<path d="M49.0044 148.186C47.5678 147.843 46.1862 148.531 45.6779 148.828C46.1627 149.168 47.4357 149.961 48.7766 150.038C50.0826 150.105 51.4056 149.562 52.0054 149.281C51.4054 149.009 50.1353 148.463 49.0044 148.186Z" fill="white"/>
<path d="M60.3534 151.861C59.9958 151.841 59.6346 151.88 59.2204 151.993C58.6908 152.283 58.1497 152.539 57.6189 152.755C57.359 152.936 57.1539 153.105 57.0146 153.231C57.5605 153.507 58.99 154.144 60.4006 153.972C61.7384 153.785 63.0458 152.908 63.6187 152.481C62.9601 152.299 61.5579 151.946 60.3534 151.861Z" fill="white"/>
<path d="M38.4903 142.476C38.1345 142.332 37.7525 142.254 37.3215 142.239C36.8021 142.334 36.2791 142.404 35.7645 142.447C35.4283 142.544 35.1564 142.654 34.9729 142.734C35.4003 143.159 36.5408 144.183 37.9014 144.451C39.1998 144.681 40.6774 144.264 41.3433 144.036C40.7884 143.671 39.5914 142.917 38.4903 142.476Z" fill="white"/>
<path d="M46.5583 146.789C45.9881 146.47 44.7667 145.816 43.6581 145.473C42.2033 145.017 40.7317 145.691 40.1934 145.983C40.6367 146.373 41.828 147.305 43.201 147.449C43.8464 147.518 44.586 147.433 45.386 147.21C45.546 147.155 45.7171 147.099 45.8882 147.051C46.1631 146.96 46.3872 146.867 46.5583 146.789Z" fill="white"/>
<path d="M153.396 94.5353C153.015 95.5168 152.791 96.7553 152.697 97.3625C153.293 97.0986 154.501 96.4688 155.16 95.4919C155.838 94.4781 155.849 93.0917 155.82 92.5194C155.25 92.7194 153.886 93.3069 153.396 94.5353Z" fill="white"/>
<path d="M154.425 88.7961C154.085 89.8199 153.908 91.093 153.838 91.718C153.977 91.6344 154.135 91.536 154.315 91.4085C154.504 91.2593 154.671 91.1318 154.822 91.0262C155.428 90.5408 155.88 90.0343 156.166 89.5281C156.804 88.4111 156.757 87.0045 156.701 86.4378C156.171 86.6977 154.867 87.4514 154.425 88.7961Z" fill="white"/>
<path d="M151.86 100.319C151.378 101.271 151.042 102.499 150.894 103.101C151.514 102.878 152.79 102.33 153.536 101.4C154.318 100.42 154.446 99.0179 154.467 98.4469C153.881 98.6001 152.457 99.0876 151.86 100.319Z" fill="white"/>
<path d="M144.823 116.842C144.184 117.592 143.594 118.589 143.31 119.105C143.914 119.008 145.135 118.741 146.007 118.06C146.907 117.353 147.376 116.177 147.543 115.662C146.982 115.704 145.641 115.899 144.823 116.842Z" fill="white"/>
<path d="M149.915 105.984C149.373 106.87 148.935 108.034 148.732 108.613C149.36 108.429 150.638 107.971 151.439 107.14C152.263 106.244 152.521 104.906 152.595 104.349C152.01 104.467 150.597 104.851 149.915 105.984Z" fill="white"/>
<path d="M147.488 111.435C146.836 112.321 146.275 113.511 146.027 114.09C146.679 113.948 148.072 113.565 148.995 112.727C149.955 111.852 150.336 110.461 150.456 109.89C149.851 109.97 148.333 110.273 147.488 111.435Z" fill="white"/>
<path d="M154.952 73.9611C155.065 73.8546 155.186 73.7268 155.334 73.5641C155.479 73.3797 155.613 73.2206 155.731 73.0907C156.227 72.4501 156.567 71.826 156.741 71.2341C157.094 69.9874 156.722 68.5967 156.54 68.0433C156.074 68.4292 154.952 69.4933 154.836 70.9021C154.742 72.0161 154.874 73.3268 154.952 73.9611Z" fill="white"/>
<path d="M154.867 82.7776C154.622 83.916 154.592 85.3304 154.597 86.0007C155.189 85.6214 156.431 84.7227 156.98 83.5565C157.538 82.3245 157.289 80.7776 157.15 80.1721C156.586 80.4627 155.174 81.324 154.867 82.7776Z" fill="white"/>
<path d="M155.087 76.8583C154.888 78.0373 154.918 79.4536 154.949 80.1189C155.009 80.068 155.071 80.0154 155.139 79.9534C155.454 79.5703 155.804 79.2042 156.198 78.859C156.613 78.3414 156.904 77.8586 157.084 77.3795C157.571 76.0718 157.281 74.5482 157.138 73.9572C156.613 74.3196 155.32 75.3479 155.087 76.8583Z" fill="white"/>
<path d="M133.938 131.06C133.054 131.694 132.148 132.615 131.714 133.074C132.357 133.101 133.727 133.086 134.837 132.561C136.003 132.009 136.815 130.864 137.123 130.386C136.546 130.311 135.089 130.231 133.938 131.06Z" fill="white"/>
<path d="M109.217 148.186C108.085 148.462 106.814 149.008 106.22 149.279C106.817 149.561 108.14 150.105 109.44 150.039C110.785 149.962 112.057 149.168 112.544 148.829C112.033 148.532 110.652 147.843 109.217 148.186Z" fill="white"/>
<path d="M141.522 121.815C140.731 122.583 139.987 123.64 139.632 124.16C140.284 124.104 141.663 123.909 142.678 123.228C143.753 122.51 144.374 121.24 144.591 120.714C144.005 120.714 142.514 120.819 141.522 121.815Z" fill="white"/>
<path d="M120.902 142.239C120.473 142.254 120.086 142.332 119.732 142.476C118.631 142.917 117.434 143.671 116.879 144.036C117.544 144.264 119.022 144.681 120.318 144.451C121.682 144.183 122.825 143.159 123.25 142.734C123.066 142.654 122.798 142.544 122.457 142.447C121.937 142.404 121.42 142.334 120.902 142.239Z" fill="white"/>
<path d="M103.605 150.239C102.462 150.402 101.175 150.843 100.568 151.066C100.699 151.148 100.858 151.248 101.045 151.352C101.32 151.476 101.575 151.603 101.779 151.72C102.478 152.025 103.128 152.197 103.716 152.227C105.065 152.294 106.373 151.581 106.874 151.272C106.395 150.898 105.072 150.009 103.605 150.239Z" fill="white"/>
<path d="M114.566 145.473C113.457 145.816 112.23 146.47 111.663 146.793C111.834 146.865 112.055 146.957 112.322 147.047C112.504 147.099 112.673 147.155 112.825 147.207C113.642 147.433 114.376 147.518 115.019 147.449C116.392 147.305 117.586 146.373 118.032 145.983C117.491 145.691 116.017 145.018 114.566 145.473Z" fill="white"/>
<path d="M137.92 126.605C137.104 127.291 136.289 128.248 135.897 128.73C136.539 128.714 137.875 128.601 138.905 128.029C139.984 127.409 140.698 126.247 140.964 125.752C140.383 125.716 138.95 125.732 137.92 126.605Z" fill="white"/>
<path d="M124.699 139.166C123.579 139.724 122.386 140.6 121.837 141.017C122.513 141.15 124.034 141.37 125.362 140.971C126.761 140.549 127.893 139.41 128.308 138.958C127.716 138.785 126.113 138.433 124.699 139.166Z" fill="white"/>
<path d="M99.004 151.993C98.588 151.88 98.2229 151.841 97.8704 151.862C96.6667 151.946 95.2607 152.299 94.6047 152.481C95.1744 152.908 96.486 153.785 97.8211 153.972C99.2316 154.144 100.664 153.507 101.206 153.231C101.068 153.105 100.863 152.936 100.607 152.754C100.071 152.539 99.5318 152.283 99.004 151.993Z" fill="white"/>
<path d="M129.647 135.2C128.698 135.774 127.696 136.628 127.214 137.055C127.858 137.126 129.228 137.207 130.395 136.756C131.615 136.295 132.559 135.199 132.916 134.737C132.336 134.626 130.857 134.448 129.647 135.2Z" fill="white"/>
<path d="M22.648 27.6005C23.4293 26.3168 23.03 24.615 22.829 23.9704C22.3224 24.2997 21.0622 25.2263 20.6043 26.5513C20.167 27.8318 20.4259 29.4189 20.5796 30.132C21.0447 29.6607 22.023 28.6194 22.648 27.6005Z" fill="white"/>
<path d="M17.1928 38.511C16.4168 39.0435 15.5627 40.5607 15.212 41.23C16.0244 41.1532 18.0137 40.8915 19.5284 39.9828C20.3317 39.5045 20.9815 37.9693 21.227 37.3214C20.4562 37.381 18.4644 37.6193 17.1928 38.511Z" fill="white"/>
<path d="M6.42167 56.642C6.66522 56.0111 7.1605 54.636 7.35171 53.4194C7.61527 51.8605 6.66417 50.4582 6.27353 49.9606C5.94261 50.4773 5.14773 51.8686 5.20918 53.305C5.26308 54.6765 6.0368 56.0467 6.42167 56.642Z" fill="white"/>
<path d="M22.6722 35.3903C23.5053 34.9676 24.2646 33.528 24.5631 32.9117C23.7992 32.9294 21.864 33.0551 20.5489 33.8288C19.7525 34.2914 18.8013 35.6708 18.3992 36.2915C19.1957 36.2806 21.1336 36.1729 22.6722 35.3903Z" fill="white"/>
<path d="M25.5741 27.4996C26.3698 27.5453 28.3401 27.5727 30.0441 26.9551C30.9813 26.6078 32.079 25.2884 32.5183 24.7264C31.762 24.6866 29.794 24.6494 28.3176 25.2893C27.4062 25.6808 26.1157 26.9396 25.5741 27.4996Z" fill="white"/>
<path d="M26.1494 31.037C26.9719 30.6872 27.8246 29.3873 28.1696 28.8083C27.4323 28.7826 25.6056 28.7894 24.3036 29.4395C23.5149 29.8276 22.4866 31.0737 22.0413 31.6517C22.8136 31.6841 24.6455 31.6727 26.1494 31.037Z" fill="white"/>
<path d="M13.3968 116.842C12.5789 115.898 11.2382 115.703 10.6779 115.662C10.8478 116.177 11.3154 117.353 12.2148 118.06C13.0888 118.741 14.3072 119.008 14.9129 119.105C14.6274 118.589 14.0364 117.592 13.3968 116.842Z" fill="white"/>
<path d="M10.7123 44.474C10.795 44.7092 10.8693 44.8984 10.9324 45.0527C11.2636 44.4863 11.9222 43.2779 12.2798 42.1771C12.7448 40.7353 12.0928 39.2645 11.8067 38.7235C11.4133 39.162 10.4714 40.3383 10.3171 41.7028C10.2494 42.2863 10.3056 42.9609 10.4837 43.6872C10.5655 43.9263 10.6428 44.1871 10.7123 44.474Z" fill="white"/>
<path d="M8.62591 57.1915C9.3026 56.9428 10.816 56.2939 11.8448 55.2122C12.3962 54.6279 12.6383 53.2409 12.7242 52.6101C12.0849 52.8547 10.5809 53.5173 9.72665 54.5291C9.20875 55.1379 8.79983 56.5316 8.62591 57.1915Z" fill="white"/>
<path d="M9.72442 47.5494C10.0733 46.0872 9.19931 44.603 8.83366 44.0627C8.45963 44.5334 7.59124 45.7977 7.58778 47.1838C7.57112 48.5116 8.27527 49.92 8.63048 50.5461C8.90741 49.9547 9.46995 48.6823 9.72442 47.5494Z" fill="white"/>
<path d="M15.492 46.7785C14.7624 46.9919 12.912 47.6229 11.8171 48.7389C11.1398 49.4135 10.5066 51.0266 10.2558 51.7402C11.0111 51.5119 12.8416 50.8774 14.1753 49.7074C14.8872 49.0777 15.3317 47.4605 15.492 46.7785Z" fill="white"/>
<path d="M18.1894 41.8654C17.4506 42.0304 15.5438 42.5378 14.3563 43.5612C13.6145 44.1899 12.8224 45.7617 12.5011 46.4542C13.2808 46.2791 15.1787 45.7681 16.5962 44.7024C17.3677 44.1093 17.9655 42.5306 18.1894 41.8654Z" fill="white"/>
<path d="M15.4182 37.0927C15.9657 35.7339 15.3142 34.1577 15.014 33.5609C14.577 33.9597 13.5236 35.0355 13.2834 36.3848C13.0842 37.6637 13.5864 39.1681 13.8497 39.8487C14.2244 39.3147 14.9815 38.1635 15.4182 37.0927Z" fill="white"/>
<path d="M31.2972 19.3871C32.3567 18.1555 32.3023 16.3759 32.2391 15.7136C31.668 15.9958 30.2207 16.8108 29.4812 18.1035C29.2815 18.4584 29.1236 18.8827 28.9994 19.3646C29.0105 20.2142 28.9212 21.0187 28.7266 21.7565C29.2779 21.3255 30.4662 20.3592 31.2972 19.3871Z" fill="white"/>
<path d="M18.8476 32.2037C19.5338 30.8745 18.9891 29.24 18.7345 28.6254C18.2666 28.9851 17.0977 29.9833 16.7573 31.3319C16.4383 32.6099 16.8252 34.1534 17.0382 34.8429C17.4615 34.3453 18.3253 33.2568 18.8476 32.2037Z" fill="white"/>
<path d="M121.436 21.2536C121.901 21.771 123.078 22.9841 124 23.2441C125.728 23.7357 127.645 23.5714 128.419 23.4712C127.844 22.9593 126.489 21.807 125.57 21.4909C124.076 20.9668 122.166 21.154 121.436 21.2536Z" fill="white"/>
<path d="M121.335 14.7754C121.541 15.1989 121.794 15.5535 122.102 15.8554C123.076 16.8389 124.439 17.7641 125.05 18.1583C125.002 17.398 124.795 15.6175 123.934 14.3264C123.034 12.9865 121.396 12.246 120.781 12.0033C120.768 12.2439 120.78 12.6355 120.836 13.0908C121.034 13.6322 121.2 14.1985 121.335 14.7754Z" fill="white"/>
<path d="M119.427 20.1202C119.625 20.1578 119.841 20.1831 120.103 20.2029C120.894 20.0694 122.091 19.9178 123.388 19.9518C123.755 19.8736 124.066 19.7945 124.28 19.7325C123.652 19.2263 122.104 18.0462 121.081 17.8043C119.389 17.4007 117.272 17.8843 116.495 18.0952C117.02 18.6335 118.375 19.9349 119.427 20.1202Z" fill="white"/>
<path d="M129.497 21.7566C129.301 21.0189 129.206 20.2143 129.222 19.3647C129.099 18.8829 128.936 18.4585 128.74 18.1054C128.003 16.8106 126.552 15.9959 125.981 15.7135C125.919 16.376 125.867 18.1553 126.923 19.3882C127.754 20.3593 128.945 21.3257 129.497 21.7566Z" fill="white"/>
<path d="M125.705 24.7264C126.142 25.2881 127.243 26.6081 128.175 26.955C129.884 27.573 131.853 27.5452 132.645 27.4996C132.108 26.9399 130.82 25.6812 129.906 25.2895C128.427 24.6491 126.46 24.6867 125.705 24.7264Z" fill="white"/>
<path d="M130 28.7007C130.378 29.2694 131.295 30.5513 132.128 30.9328C133.656 31.6274 135.466 31.7519 136.23 31.7695C135.753 31.1951 134.662 29.9521 133.857 29.537C132.534 28.842 130.721 28.7217 130 28.7007Z" fill="white"/>
<path d="M133.693 25.7995C133.79 25.0667 133.935 23.3956 133.368 22.1112C132.778 20.7735 131.368 19.9311 130.803 19.639C130.657 20.3002 130.374 22.0848 131.328 23.3752C132.056 24.3724 133.169 25.3619 133.693 25.7995Z" fill="white"/>
<path d="M34.2439 23.3294C35.1548 23.0827 36.2862 21.829 36.7403 21.293C36.0079 21.1631 34.1036 20.9003 32.6275 21.4115C31.7232 21.7165 30.4073 22.9008 29.8452 23.4261C30.6191 23.5582 32.5382 23.7965 34.2439 23.3294Z" fill="white"/>
<path d="M37.3993 12.0456C36.774 12.268 35.1146 12.9629 34.2405 14.2863C33.3998 15.5617 33.2424 17.3528 33.2203 18.1193C33.8361 17.7414 35.2062 16.8511 36.1725 15.8869C37.4231 14.6858 37.4395 12.7477 37.3993 12.0456Z" fill="white"/>
<path d="M47.1959 11.478C56.4446 7.49025 67.4055 4.33046 79.0981 4.33046C90.9195 4.33046 101.702 7.41325 111.009 11.46C111.406 11.8666 111.917 12.2465 112.547 12.4293C113.614 12.7307 114.919 12.8585 115.551 12.9057C115.191 12.3514 114.35 11.2128 113.24 10.6407C112.614 10.318 111.904 10.1998 111.295 10.17C101.907 6.10224 91.7791 3.03358 79.0981 3.03358C66.2656 3.03358 55.754 6.3227 46.2684 10.4654C45.7658 10.5225 45.2268 10.6482 44.7387 10.8985C43.6283 11.4753 42.7919 12.6122 42.4268 13.1662C43.0599 13.1193 44.3643 12.9911 45.4323 12.6883C46.1872 12.4708 46.7742 11.9701 47.1959 11.478Z" fill="white"/>
<path d="M42.8753 10.3663C53.487 5.13367 64.8722 1.29658 79.0982 1.29658C93.3774 1.29658 104.581 5.07502 115.226 10.3377C115.596 11.0201 116.07 11.7164 116.646 12.2063C117.612 13.0289 118.925 13.7787 119.535 14.1083C119.437 13.4665 119.144 12.1029 118.28 11.0048C117.37 9.86162 115.277 8.85738 114.406 8.4715C114.41 8.48233 114.414 8.49496 114.418 8.50579C103.914 3.50806 91.9076 0 79.0982 0C65.7847 0 53.1249 3.87559 42.3306 9.18912C41.4229 9.59815 40.3591 10.1937 39.7702 10.9332C38.8848 12.0551 38.5572 13.6545 38.449 14.367C39.055 14.0377 40.3705 13.2897 41.3387 12.4692C41.976 11.9233 42.4903 11.1206 42.8753 10.3663Z" fill="white"/>
<path d="M26.8788 23.3698C27.8275 22.0662 27.5592 20.278 27.4184 19.6158C26.8684 19.9142 25.4723 20.7729 24.8805 22.1203C24.3094 23.4142 24.4352 25.0896 24.5303 25.8242C25.047 25.3797 26.1514 24.3769 26.8788 23.3698Z" fill="white"/>
<path d="M4.93168 62.3517C5.13643 61.703 5.53963 60.3137 5.65192 59.1216C5.80287 57.5944 4.75623 56.312 4.32999 55.8553C4.02595 56.3965 3.32889 57.8214 3.473 59.2063C3.62926 60.5206 4.49933 61.7949 4.93168 62.3517Z" fill="white"/>
<path d="M3.3903 91.0166C3.55121 91.1315 3.72053 91.2593 3.89768 91.3989C4.08295 91.5324 4.24777 91.6311 4.38491 91.7177C4.31453 91.0927 4.13829 89.8199 3.79963 88.7958C3.35451 87.4511 2.04951 86.6974 1.51957 86.4376C1.46784 87.0042 1.41882 88.4108 2.05523 89.5279C2.34125 90.034 2.7966 90.5405 3.3903 91.0166Z" fill="white"/>
<path d="M3.60616 86.0152C3.61041 85.3421 3.59063 83.9202 3.34986 82.7769C3.04576 81.3167 1.64593 80.4518 1.08194 80.1597C0.951016 80.7717 0.69666 82.3222 1.24781 83.5595C1.79149 84.7316 3.02072 85.6338 3.60616 86.0152Z" fill="white"/>
<path d="M2.48217 73.0805C2.61481 73.2206 2.74564 73.3797 2.88128 73.5539C3.02414 73.7184 3.15588 73.8513 3.26686 73.9611C3.34596 73.3268 3.47949 72.0161 3.39017 70.9021C3.26686 69.4933 2.14713 68.4292 1.68125 68.0434C1.49959 68.5968 1.12996 69.9875 1.47914 71.2341C1.65508 71.826 1.99374 72.4501 2.48217 73.0805Z" fill="white"/>
<path d="M3.86382 68.048C4.02061 67.414 4.32398 66.0761 4.35145 64.9434C4.39191 63.4583 3.30215 62.3261 2.85267 61.9227C2.58542 62.465 1.99451 63.8663 2.24327 65.1756C2.47803 66.4257 3.40533 67.5525 3.86382 68.048Z" fill="white"/>
<path d="M2.02688 78.859C2.41666 79.2043 2.77396 79.5703 3.08164 79.9535C3.15021 80.0154 3.21337 80.0684 3.27443 80.1189C3.3039 79.4539 3.33398 78.0373 3.13337 76.8574C2.90389 75.3482 1.60701 74.3196 1.0858 73.9575C0.938124 74.5491 0.647289 76.0719 1.13663 77.3799C1.31528 77.8587 1.60701 78.3414 2.02688 78.859Z" fill="white"/>
<path d="M10.7322 111.436C9.88967 110.273 8.37376 109.97 7.76537 109.89C7.88884 110.461 8.26686 111.851 9.22961 112.727C10.1511 113.565 11.5404 113.948 12.1989 114.091C11.9418 113.512 11.3861 112.321 10.7322 111.436Z" fill="white"/>
<path d="M6.36005 100.314C5.76399 99.0876 4.3408 98.5996 3.75732 98.4462C3.77676 99.0168 3.90849 100.419 4.68709 101.399C5.43127 102.33 6.70765 102.878 7.32738 103.102C7.17992 102.5 6.84507 101.272 6.36005 100.314Z" fill="white"/>
<path d="M8.30964 105.984C7.62024 104.852 6.21264 104.465 5.62658 104.349C5.70182 104.906 5.95839 106.244 6.78651 107.14C7.58557 107.972 8.86397 108.429 9.48932 108.613C9.28427 108.034 8.84862 106.871 8.30964 105.984Z" fill="white"/>
<path d="M4.82295 94.5379C4.33433 93.308 2.97308 92.7186 2.40076 92.519C2.37377 93.0927 2.38511 94.4777 3.06454 95.4933C3.72397 96.4686 4.93055 97.0988 5.524 97.3629C5.4321 96.7551 5.20919 95.5165 4.82295 94.5379Z" fill="white"/>
<path d="M106.671 39.0345C107.433 39.5418 108.28 39.7617 109.183 39.8946L110.639 37.7069C109.734 37.9535 108.674 37.8416 107.886 37.3174C106.173 36.1778 106.18 33.8912 107.236 32.3038C108.318 30.6781 110.412 29.7274 112.174 30.9001C112.961 31.4243 113.486 32.3149 113.584 33.2812L115.048 31.0806C114.644 30.307 114.051 29.6243 113.314 29.1334C110.551 27.2943 107.091 28.4017 105.31 31.0764C103.581 33.6767 104.021 37.2708 106.671 39.0345Z" fill="white"/>
<path d="M125.683 64.4613L124.76 66.6223L122.422 66.412L124.19 67.9567L123.266 70.1165L125.283 68.9126L127.051 70.4576L126.529 68.167L128.546 66.963L126.206 66.7522L125.683 64.4613Z" fill="white"/>
<path d="M119.55 34.5801L112.04 42.9982L110.362 41.499L117.872 33.0809L119.55 34.5801Z" fill="white"/>
<path d="M122.69 42.2775L122.708 42.301L120.429 46.0061L118.72 43.9305L122.69 42.2775ZM114.494 45.3883L116.929 44.5895L119.43 47.6263L118.141 49.817L119.639 51.6366L125.881 40.9335L124.794 39.6122L113.015 43.5913L114.494 45.3883Z" fill="white"/>
<path d="M88.6017 102.867L39.2689 96.5098L39.2779 96.8438L88.6131 103.291L88.6017 102.867Z" fill="white"/>
<path d="M43.0525 99.2755V104.238L42.5238 104.601V104.915H42.3569V98.5272L44.9455 98.8391L44.5897 99.462L43.0525 99.2755ZM44.9687 104.767L49.8867 105.289L49.8978 105.507L44.9542 105.051L44.9687 104.767ZM45.4168 98.8959L48.0232 99.2033L47.6833 99.7739L46.1446 99.5907V103.802L45.4168 103.706V98.8959ZM48.443 99.2523L50.9114 99.5474L50.5733 100.097L49.0376 99.9149V104.593L48.6418 104.237L48.443 104.088V99.2523ZM42.8748 109.664L42.6275 108.769L40.2536 108.624V111.525L39.4879 111.498V107.967L43.4643 108.188L42.8748 109.664ZM42.8748 113.863L42.6275 112.908L40.2536 112.822V115.51L39.4879 115.484V112.166L43.4423 112.317L42.8748 113.863ZM45.1193 120.001V106.427L44.9016 105.84V105.311L49.8434 105.852L49.7736 105.98L51.416 106.12L51.4037 99.6084L53.8125 99.8939L53.5674 100.424L52.032 100.249V106.166L54.2306 106.357L54.2137 99.9438L56.5651 100.226L56.2589 100.72L54.8258 100.551V106.403L56.9672 106.588L56.975 100.273L59.234 100.542L58.9005 101.03L57.6036 100.878V106.618L59.6554 106.811V100.593L61.9153 100.867L61.6338 101.333L60.2503 101.161V106.862L62.2732 107.037L62.2705 107.032L62.2681 100.907L64.3728 101.161L64.0747 101.598L62.7968 101.451V107.081L64.7963 107.25L64.7815 101.201L66.8059 101.449L66.4405 101.864L65.2946 101.725V107.289L67.1921 107.452L67.1792 101.495L69.1636 101.727L68.9251 102.131L67.7741 101.993V107.499L69.5916 107.654L69.5937 101.775L71.4942 102.008L71.1979 102.407L70.0409 102.29V107.694L71.8951 107.849L71.8918 102.049L73.7914 102.282L73.5577 102.661L72.4052 102.52V107.89L74.1463 108.04L74.1249 102.315L75.952 102.537L75.725 102.899L74.638 102.772V108.079L76.3499 108.226L76.3244 102.579L78.1419 102.797L77.9304 103.158L76.8035 103.021V108.265L78.4495 108.403L78.4559 102.838L80.2048 103.045L79.9723 103.374L78.919 103.243V108.443L80.5383 108.58L80.5428 103.086L82.1543 103.272L81.9423 103.584L80.9871 103.474V108.617L82.5658 108.751L82.5579 103.326L84.1592 103.516L83.9438 103.819L83.0208 103.71V108.777L84.5258 108.917L84.5084 103.554L86.0648 103.741L85.8678 104.027L84.9396 103.919V108.951L86.404 109.076L86.3947 103.781L87.9704 103.967L87.7761 104.259L86.8254 104.15V109.102L88.1797 109.226V103.757L41.1162 98.0355V98.3807L41.869 98.4719L41.6795 98.978V105.03L37.9077 104.717V97.738L31.5388 97.0009V104.305L35.4153 104.632L35.3789 104.776L44.356 105.458V105.818L44.5713 106.321L34.8406 105.566L34.6604 105.887L34.6622 106.607L44.2477 107.332V107.635L35.0565 106.952V107.678L39.032 107.899L38.4434 109.377L38.1961 108.48L35.8219 108.336V111.371L35.0565 111.344V112.035L39.032 112.157L38.4434 113.732L38.1961 112.778L35.8219 112.692V115.354L35.0565 115.327V116.114L39.032 116.219L38.4434 117.696L38.1961 116.798L35.8219 116.77V120.02L39.4879 119.989V116.231L43.3611 116.341L42.8748 117.929L42.6714 116.954L40.2536 116.888V119.983L43.3289 119.958L43.3307 119.954L44.6132 119.941L45.1193 120.001Z" fill="white"/>
<path d="M86.2063 144.005C85.5684 144.075 84.9293 144.119 84.2878 144.171V147.076C84.2595 147.047 84.2207 147.027 84.1909 146.996C84.5145 147.291 84.821 147.602 85.0875 147.944C85.0875 147.941 85.0839 147.935 85.08 147.93L85.237 147.824C85.237 147.824 85.2439 147.82 85.2511 147.815L85.2571 147.811C85.529 147.653 85.8592 147.544 86.2063 147.454V144.005Z" fill="white"/>
<path d="M90.3044 143.418C89.6674 143.528 89.0304 143.632 88.3886 143.722V147.204C88.3793 147.204 88.3736 147.205 88.363 147.205C89.1188 147.193 89.8151 147.239 90.3044 147.284V143.418Z" fill="white"/>
<path d="M65.5103 22.1715C67.3934 21.7179 69.1691 23.1895 69.5985 24.9712C69.9994 26.635 69.1074 29.0901 67.2827 29.5289C65.458 29.9687 63.5463 28.1894 63.1457 26.5256C62.7165 24.7442 63.6272 22.6247 65.5103 22.1715ZM67.7919 31.6466C71.004 30.8727 72.5983 27.6775 71.8389 24.5243C71.0966 21.4436 68.212 19.2805 65.0008 20.055C61.789 20.8277 60.2058 24.0671 60.9475 27.1472C61.7072 30.3007 64.5807 32.4201 67.7919 31.6466Z" fill="white"/>
<path d="M49.7444 39.8252L48.4845 38.3734L45.728 40.7641L43.7214 38.4501L46.3756 36.1475L45.116 34.6957L42.4615 36.998L40.829 35.115L43.5848 32.7242L42.3249 31.2722L37.9014 35.1096L45.3199 43.6629L49.7444 39.8252Z" fill="white"/>
<path d="M52.5765 37.7415L50.0932 31.0899L50.1196 31.0761L55.7321 36.1899L56.4055 35.823L55.2211 28.2923L55.2473 28.2775L59.4044 34.0154L61.3557 32.9507L54.2987 23.5607L52.902 24.3231L54.1303 32.1549L48.1036 26.9412L46.7322 27.6895L50.6255 38.8056L52.5765 37.7415Z" fill="white"/>
<path d="M79.732 30.3111C80.6484 30.3066 81.4728 30.0173 82.2972 29.6227L82.2837 26.9944C81.671 27.7035 80.729 28.2034 79.782 28.2082C77.7251 28.2188 76.4534 26.3179 76.4438 24.4111C76.4339 22.4586 77.6405 20.5 79.7576 20.4901C80.7044 20.4853 81.6382 20.9307 82.2572 21.6787L82.2431 19.0356C81.4749 18.6188 80.6039 18.3836 79.7176 18.3878C76.399 18.4047 74.1454 21.2541 74.162 24.4674C74.1779 27.5908 76.5482 30.3271 79.732 30.3111Z" fill="white"/>
<path d="M99.8759 25.6633L99.9042 25.6747L99.6933 30.0198L97.1964 29.0267L99.8759 25.6633ZM94.1978 32.3419L95.9447 30.4682L99.601 31.9218L99.5273 34.462L101.718 35.3336L102.023 22.9465L100.432 22.3134L92.0342 31.4821L94.1978 32.3419Z" fill="white"/>
<path d="M31.0768 70.4576L32.8449 68.9126L34.8621 70.1165L33.9382 67.9567L35.707 66.412L33.3685 66.6223L32.4449 64.4613L31.9225 66.7522L29.5823 66.963L31.5995 68.167L31.0768 70.4576Z" fill="white"/>
<path d="M88.0727 21.1783L88.368 21.2313C89.5208 21.4364 90.3467 21.8578 90.1019 23.2325C89.8595 24.5926 88.9542 24.798 87.7563 24.5853L87.4759 24.5351L88.0727 21.1783ZM87.2047 26.0582L87.2344 26.0627L89.1413 31.0388L91.7738 31.5061L89.4598 26.2452C90.9984 26.2591 92.0337 24.9793 92.2851 23.5601C92.7083 21.1789 91.3594 19.9329 89.1566 19.5413L86.2149 19.018L84.2332 30.1662L86.4058 30.5524L87.2047 26.0582Z" fill="white"/>
<path d="M38.8587 48.2194L38.6343 48.5018L32.7789 43.8502L33.0032 43.5681C34.563 41.6045 36.3471 41.4105 38.2749 42.9428C40.0275 44.3345 40.5493 46.0912 38.8587 48.2194ZM39.7078 41.1644C37.1796 39.1566 33.8989 39.3509 31.8627 41.9139L29.9009 44.3826L38.7661 51.4258L40.7186 48.9689C42.7274 46.4407 42.2002 43.1456 39.7078 41.1644Z" fill="white"/>
<path d="M80.1917 144.368V145.106C80.9087 145.209 81.5926 145.414 82.2275 145.704C82.1884 145.685 82.1469 145.656 82.1063 145.638V144.319C81.4705 144.349 80.8275 144.358 80.1917 144.368Z" fill="white"/>
<path d="M79.0992 157.836C76.2263 157.836 73.8945 155.504 73.8945 152.629C73.8945 149.755 76.2263 147.422 79.0992 147.422C81.9712 147.422 84.3051 149.755 84.3051 152.629C84.3051 155.504 81.9712 157.836 79.0992 157.836ZM79.0992 146.518C75.7238 146.518 72.9893 149.254 72.9893 152.629C72.9893 156.004 75.7238 158.74 79.0992 158.74C82.4716 158.74 85.2118 156.004 85.2118 152.629C85.2118 149.254 82.4716 146.518 79.0992 146.518Z" fill="white"/>
<path d="M69.8049 143.729C69.1631 143.639 68.527 143.54 67.8909 143.432V147.286C68.3745 147.242 69.065 147.195 69.816 147.205C69.8133 147.205 69.8124 147.204 69.8049 147.204V143.729Z" fill="white"/>
<path d="M73.1286 147.914C73.3863 147.587 73.682 147.291 73.9906 147.011C73.9632 147.032 73.9304 147.051 73.9058 147.076V144.175C73.2642 144.125 72.6263 144.08 71.9929 144.01V147.449C72.3496 147.539 72.6844 147.652 72.962 147.81L73.1325 147.909C73.1325 147.909 73.1325 147.911 73.1286 147.914Z" fill="white"/>
<path d="M79.8829 151.515L79.0961 149.108L78.3154 151.515H75.7842L77.8327 153.002L77.0504 155.408L79.0992 153.922L81.144 155.408L80.3648 153.004L82.4087 151.515H79.8829Z" fill="white"/>
<path d="M94.3857 146.2V146.2H94.3947C94.3917 146.2 94.3887 146.2 94.3857 146.2ZM79.0653 140.2C65.5614 140.2 53.0781 135.864 42.9004 128.53L119.406 125.242C108.565 134.556 94.4795 140.2 79.0653 140.2ZM39.2383 125.689L50.7827 125.37V124.841L50.1896 123.635V121.745H48.7517L48.4136 122.324L48.3333 124.89L47.7291 124.897V121.986H45.3558L44.477 123.503V124.936L43.3133 124.95V121.898H41.6655L40.6104 123.458V124.98L39.4681 124.995V121.876H37.6888L36.6626 123.394C36.3258 123.077 35.9892 122.761 35.6593 122.438L35.6671 121.679H34.8996C34.8283 121.606 34.7606 121.531 34.6911 121.459H50.5628V121.633L54.2126 121.599L54.4075 121.298L97.1833 120.86V120.991L103.125 121.024V102.586L97.7767 103.022V102.856L103.295 102.367L106.771 102.961V103.143L103.451 102.599V120.96L107.369 120.993V120.866L106.941 120.549V120.406L107.465 120.486L114.202 120.501V120.835L114.805 120.854L114.81 121.122L120.288 121.041V121.283L119.685 121.584V122.87L119.145 122.949L119.113 123.138L118.746 122.921L118.742 121.307L114.764 121.353L114.424 122.154V123.346L114.123 123.662V124.314L113.853 124.551V123.408L113.979 123.123V121.741L108.148 121.835L108.578 122.092V122.456L109.325 122.837L109.327 123.201L113.551 123.169L113.489 123.428V124.567L113.299 124.575V123.4H112.932L112.792 123.668L112.8 124.59L112.392 124.618V123.409L112.013 123.421L111.872 123.688V124.626L111.409 124.657V123.445H111.014L110.893 123.69V124.668L110.441 124.698V123.471H110.116L109.943 123.767V124.711L109.501 124.738V123.48L109.333 123.529L109.346 124.741L104.336 124.957L103.477 123.504L107.39 123.393L107.398 121.939L107.013 121.527L97.9352 121.472L97.8222 121.159L97.4486 121.157V123.242L97.3199 123.424V125.262L96.9896 125.266V123.32L97.1277 123.138L97.1112 121.152L96.9884 121.15L96.3463 122.066L96.3686 123.44C96.2053 123.445 96.0233 123.45 95.8224 123.455V121.274L95.0919 121.285L94.5276 122.096L94.5261 123.489C94.3568 123.494 94.1808 123.498 93.9989 123.503V121.302L93.0714 121.316L92.6377 122.133L92.6368 123.538C92.4019 123.545 92.1603 123.55 91.9116 123.557V121.332L91.2223 121.343L90.7056 122.173L90.7029 123.591C90.4583 123.595 90.2099 123.601 89.9561 123.608V121.361L89.2162 121.372L88.6162 122.225V123.644C88.3852 123.65 88.1497 123.655 87.9124 123.661V121.392L87.0002 121.405L86.5283 122.264L86.5295 123.698C86.282 123.704 86.0333 123.711 85.7818 123.718V121.423L84.9448 121.434L84.2877 122.304L84.2883 123.756C84.0982 123.761 83.9084 123.766 83.7174 123.771V121.452L82.6762 121.468L82.1162 122.353L82.1456 123.811C81.8575 123.82 81.5682 123.827 81.278 123.834V121.488L80.3432 121.502L79.7615 122.398V123.874C79.4779 123.882 79.1919 123.889 78.9059 123.897V121.523L77.9801 121.537L77.4117 122.443V123.935C77.0814 123.945 76.7521 123.953 76.4228 123.961V121.558L75.4706 121.572L74.8372 122.49L74.8408 124.001C74.5475 124.01 74.254 124.018 73.9623 124.025V121.595L73.0702 121.608L72.3785 122.537L72.3797 124.067C72.0482 124.074 71.7189 124.083 71.3911 124.092V121.632L70.407 121.648L69.656 122.587L69.6554 124.137C69.3233 124.145 68.9943 124.153 68.6662 124.162V121.673L67.6493 121.688L66.8421 122.64L66.843 124.21C66.5103 124.218 66.1801 124.225 65.8547 124.235V121.714L64.704 121.731L64.1205 122.689L64.119 124.281C63.7461 124.287 63.3797 124.3 63.0206 124.308V121.755L61.7111 121.774L61.1303 122.753L61.1312 124.356C60.8233 124.363 60.5234 124.372 60.2302 124.379V121.796L58.9074 121.815L58.1832 122.806L58.1868 124.431C57.7985 124.441 57.4331 124.449 57.0884 124.459V121.842L55.6204 121.864L55.0887 122.864V124.507C54.4601 124.522 54.0237 124.532 53.8571 124.534L53.8586 124.307H53.2655V124.798L54.9855 126.387L40.7644 126.923C40.2507 126.518 39.7388 126.11 39.2383 125.689ZM49.2263 108.523L51.8339 108.703L51.5716 109.521V120.101L49.2263 120.092V108.523ZM58.1958 109.143L57.7793 109.996V120.118L53.6513 120.102V108.83L58.1958 109.143ZM64.1782 109.558L63.7238 110.389V120.135L60.0876 120.121V109.274L64.1782 109.558ZM69.6425 109.936L69.2199 110.756V120.152L65.8805 120.138V109.676L69.6425 109.936ZM74.8342 110.295L74.4369 111.09V120.168L71.121 120.156V110.039L74.8342 110.295ZM79.6692 110.63L79.3158 111.455V120.183L76.4083 120.171V110.405L79.6692 110.63ZM84.171 110.943L83.8031 111.68V120.196L80.9143 120.185V110.717L84.171 110.943ZM85.3932 120.199V111.027L88.3963 111.234L88.0102 111.988V120.208L85.3932 120.201L85.3938 120.199H85.3932ZM92.3023 111.505L91.9357 112.241V120.22L89.5876 120.211V111.316L92.3023 111.505ZM96.1743 111.772L95.8344 112.576V120.231L93.5453 120.222L93.4942 111.587L96.1743 111.772ZM49.2227 107.95L49.2212 107.538L96.9457 111.251L96.9478 111.48L49.2227 107.95ZM34.335 120.359V106.034L30.3055 105.666V116.339L29.9791 116.052V105.601L29.882 105.354L27.3108 105.949L26.8984 105.552L26.8169 105.177L29.4769 104.484L29.4666 104.329L26.506 105.06L26.4951 104.89L29.4561 104.146L31.1142 104.27V96.9519L27.3078 98.0819V97.8367L31.079 96.631L38.066 97.4626L38.0765 96.6331L31.1292 95.834L27.3755 97.0241V96.7964L27.3481 96.7387L19.6844 95.9338C19.5816 95.5907 19.4859 95.2445 19.3888 94.898L26.8602 95.6842L26.8533 95.7952L31.0471 94.3151L37.6747 95.2078V94.8535L37.4993 94.806L37.4969 94.4685L31.6186 93.6712V93.3205L37.7044 94.1921L37.7165 94.646L56.6704 97.6136C56.6406 97.779 56.618 97.9465 56.5916 98.1131L38.6518 95.7639L38.6212 95.6195L31.0637 94.6105L26.8365 96.0782L26.9442 96.299L31.1115 94.8935L38.9839 95.9029V96.0337L88.7615 102.545L88.7422 109.274L97.297 109.997L97.4456 109.675V103.421L89.11 104.338V104.097L97.7716 103.131V110.039L97.396 110.855L97.3975 120.662L50.4492 121.14L49.6961 120.747L97.1112 120.439L97.0994 110.808L49.4365 106.597L49.2335 106.967L45.4457 106.637V120.37L44.5973 120.261L34.335 120.359ZM23.9321 106.496V106.342L23.8343 106.134L26.6888 105.41L26.7598 105.63L26.8969 105.79L23.9321 106.496ZM23.5787 105.778L26.447 105.097L26.4705 105.319L23.7035 105.993L23.5787 105.778ZM22.7877 104.151L27.3078 103.914V104.179L26.4569 104.414L26.4022 104.308L23.5856 104.991L23.5859 105.112L23.2532 105.128C23.0971 104.803 22.9383 104.48 22.7877 104.151ZM21.5133 101.187H27.3078V102.185L21.9257 102.186C21.7858 101.854 21.6466 101.521 21.5133 101.187ZM20.378 98.1041L27.3078 98.4671V99.4663L20.7329 99.1222C20.6111 98.7859 20.4941 98.4452 20.378 98.1041ZM18.5611 91.5785L29.365 93.2896L29.1785 93.3614L29.1105 93.7467L28.6898 93.8823L28.595 94.1774L18.7948 92.6267C18.7115 92.2781 18.6378 91.9271 18.5611 91.5785ZM17.9084 88.1493L39.4741 92.7319C39.3998 93.0562 39.3313 93.3837 39.2645 93.7112L36.2458 93.0685L36.2331 92.8742L32.9503 92.3689L18.0829 89.2085C18.0194 88.8576 17.9647 88.5036 17.9084 88.1493ZM17.4423 84.6244L24.0451 86.3931C23.939 85.6692 23.8478 84.9387 23.7696 84.2048L17.2287 82.0799C17.208 81.7259 17.1935 81.3689 17.1776 81.0131L23.6674 83.1215C23.6012 82.3687 23.5489 81.6125 23.514 80.851L17.1117 78.3938C17.1117 78.3442 17.1102 78.2934 17.1102 78.2434C17.1102 77.937 17.128 77.6353 17.1328 77.3312L23.4752 79.7665C23.4617 79.2609 23.4466 78.7562 23.4466 78.2479C23.4466 77.9718 23.4565 77.6982 23.4605 77.4227L17.2215 74.6442C17.2413 74.2905 17.2765 73.9393 17.3027 73.5871L23.4791 76.3366C23.5062 75.5309 23.557 74.7315 23.6181 73.9356L17.5638 70.8508C17.6062 70.498 17.6504 70.1461 17.6985 69.7957L23.7098 72.8586C23.7898 72.0339 23.8863 71.2156 24.0015 70.4023L18.1427 67.0197C18.2068 66.6717 18.2603 66.3207 18.3301 65.9745L24.1648 69.343C24.3005 68.5054 24.4503 67.6729 24.6226 66.8485L18.9647 63.1745C19.0498 62.8328 19.1412 62.4947 19.2315 62.1567L24.8554 65.8082C25.0491 64.9619 25.2578 64.1231 25.4894 63.2921L20.0565 59.3449C20.162 59.0119 20.279 58.6829 20.3912 58.3518L25.7901 62.2737C26.0443 61.4252 26.315 60.5831 26.6088 59.7527L21.418 55.5493C21.5455 55.2245 21.6688 54.8975 21.8021 54.5745L26.9733 58.762C27.2906 57.9166 27.6251 57.0802 27.9824 56.2543L23.0319 51.7967C23.1805 51.4824 23.3335 51.1717 23.4866 50.8607L28.4098 55.293C28.7896 54.4563 29.1911 53.6298 29.611 52.8154L24.9228 48.1277C25.0909 47.8264 25.2659 47.5298 25.4392 47.2318L30.097 51.8896C30.4237 51.2851 30.7584 50.6845 31.1061 50.0932L39.0606 54.943L39.4197 55.1613L39.8185 55.0368L49.146 52.1336C48.8497 52.4728 48.5631 52.8217 48.2783 53.1709L67.1482 82.2288C66.8658 82.4041 66.5846 82.5852 66.31 82.7717L47.6241 53.9992C47.1973 54.5514 46.7853 55.1147 46.3877 55.69L55.6995 68.5075C55.427 68.7003 55.1633 68.903 54.8962 69.1021L45.791 56.5707C45.4168 57.1424 45.0598 57.7274 44.7149 58.3196L65.1834 83.5976C64.9208 83.8009 64.6598 84.0105 64.4056 84.2258L44.1798 59.2507V59.2498C43.8589 59.8381 43.5554 60.4378 43.2631 61.0433L52.3638 71.1503C52.1142 71.3708 51.8678 71.5945 51.6236 71.8204L42.8077 62.0289C42.5404 62.625 42.2844 63.2277 42.0459 63.8385L63.3686 85.1618C63.1283 85.3916 62.8928 85.6271 62.6636 85.868L41.6658 64.8701C41.451 65.4696 41.2501 66.075 41.0636 66.6876L49.3219 74.1239C49.0963 74.369 48.8693 74.6127 48.6491 74.8626L40.7521 67.7523C40.5887 68.3484 40.4402 68.9503 40.3039 69.5575L61.7265 86.9047C61.5105 87.1592 61.3015 87.4178 61.0973 87.6807L40.0726 70.6559C39.9589 71.2432 39.8588 71.8354 39.7704 72.4315L46.6033 77.3953C46.4039 77.663 46.1988 77.9261 46.006 78.1983L39.6254 73.5627C39.5583 74.1357 39.5024 74.7122 39.46 75.2918L60.2735 88.8064C60.0852 89.0831 59.905 89.3628 59.7288 89.6458L39.3833 76.4344C39.3577 76.9887 39.3463 77.5466 39.3442 78.1063L44.2346 80.9298C44.0643 81.2161 43.8944 81.5028 43.7305 81.7924L39.3601 79.2702C39.374 79.8059 39.3974 80.3394 39.432 80.8694L59.0271 90.8537C58.8692 91.1466 58.717 91.4432 58.5712 91.7439L39.5277 82.0411C39.5758 82.5497 39.6335 83.0559 39.7009 83.5588L42.2408 84.689C42.1001 84.9919 41.968 85.2972 41.8348 85.6036L32.0207 81.2342L30.3214 82.393L58.0073 93.0207C57.8803 93.3283 57.7585 93.639 57.646 93.9533L29.3175 83.0781L27.4524 84.3516L40.6432 88.6368C40.5349 88.9508 40.4411 89.2705 40.3403 89.5881L26.4103 85.0632L24.3441 86.4728L57.2184 95.2812C57.1248 95.6009 57.0373 95.9227 56.9585 96.2478L17.5568 85.6902C17.5141 85.3363 17.4789 84.9799 17.4423 84.6244ZM40.9358 53.7189C42.8318 50.7723 45.012 48.0859 47.447 45.7078L50.3755 50.7789L59.2948 66.2293C59.0034 66.3929 58.7213 66.5682 58.4352 66.7385L49.3968 51.0845C49.3974 51.0839 49.3977 51.0836 49.398 51.0836L40.9358 53.7189ZM79.0653 16.2968C101.465 16.2968 121.083 28.1859 131.965 45.9951L118.588 54.1517C116.112 50.1001 113.029 46.4621 109.468 43.3568L90.0204 81.5244C89.7284 81.3674 89.4322 81.2152 89.1323 81.0709L108.686 42.6924C108.037 42.1513 107.376 41.6265 106.698 41.1212L96.2435 64.6037C95.94 64.4662 95.6314 64.3402 95.3249 64.2103L105.873 40.5176C105.178 40.0232 104.468 39.551 103.746 39.0944L87.8514 80.5051C87.5437 80.3782 87.2333 80.2582 86.9193 80.146L102.881 38.5612C102.145 38.1178 101.397 37.6923 100.634 37.2899L92.2632 63.053C91.9471 62.9477 91.6298 62.8466 91.311 62.7495L99.7338 36.8288C98.9578 36.4417 98.1701 36.0772 97.3722 35.7328L85.5866 79.7175C85.2678 79.6242 84.9475 79.5367 84.6224 79.4579L96.4429 35.3418C95.6353 35.0149 94.8191 34.706 93.9905 34.4239L88.1449 61.9224C87.8207 61.8508 87.4959 61.7765 87.1689 61.7125L93.0341 34.115C92.1998 33.8516 91.3567 33.6116 90.5029 33.3947L83.2545 79.1707C82.927 79.112 82.598 79.0609 82.2672 79.0158L89.5299 33.1547C88.6754 32.9571 87.8129 32.7839 86.9416 32.6341L83.9364 61.2267C83.6052 61.1897 83.2762 61.1464 82.9439 61.1179L85.9536 32.4792C85.0841 32.3493 84.2089 32.2425 83.324 32.1622L80.8764 78.8723C80.5453 78.8489 80.2139 78.8317 79.8785 78.8218L82.3288 32.0795C81.4566 32.0187 80.5763 31.9863 79.6908 31.9745V60.9747C79.3579 60.9717 79.025 60.969 78.6911 60.9753V31.9706C77.8024 31.9769 76.9181 32.0058 76.0423 32.0623L78.492 78.8218C78.157 78.8323 77.8252 78.8489 77.4938 78.8729L75.0447 32.142C74.1602 32.2181 73.2835 32.3186 72.414 32.444L75.4333 61.1666C75.1024 61.1994 74.7716 61.2355 74.4402 61.2764L71.4257 32.5923C70.5523 32.7376 69.6885 32.9111 68.8325 33.1048L76.1049 79.0176C75.7734 79.0627 75.4441 79.1141 75.1184 79.1728L67.8577 33.3367C67.0033 33.5493 66.1575 33.7827 65.322 34.0422L71.2232 61.8012C70.8975 61.8674 70.5721 61.9413 70.2467 62.0159L64.3668 34.3508C63.5349 34.629 62.7156 34.9322 61.906 35.2561L73.7508 79.46C73.4269 79.5394 73.1048 79.6266 72.7866 79.7187L60.9749 35.639C60.1745 35.9794 59.3838 36.3383 58.6067 36.7217L67.1013 62.8647C66.7828 62.9651 66.4673 63.0719 66.153 63.1793L57.7056 37.1831C56.9402 37.5822 56.1874 38.0027 55.4478 38.443L71.4572 80.1472C71.142 80.2603 70.8317 80.3815 70.5234 80.5079L54.578 38.9708C53.8532 39.4237 53.1398 39.8941 52.4423 40.3856L63.1099 64.3453C62.8035 64.4773 62.503 64.6184 62.2016 64.7574L51.6173 40.9853C50.9361 41.4888 50.2699 42.0094 49.6173 42.5483L69.2464 81.0721C68.9459 81.2161 68.6499 81.3707 68.357 81.5277L48.832 43.2073C45.1994 46.3442 42.058 50.0355 39.543 54.1517L26.1652 45.9951C37.0473 28.1859 56.6662 16.2968 79.0653 16.2968ZM99.0974 66.0392L107.755 50.7789L110.683 45.7078C113.119 48.0859 115.298 50.7723 117.194 53.7189L108.984 51.1615V51.1621L100.056 66.5749C99.7395 66.3902 99.418 66.216 99.0974 66.0392ZM133.3 48.2871L128.606 52.9802C129.022 53.7938 129.416 54.6199 129.794 55.4561L134.724 51.0162C134.878 51.3272 135.024 51.6421 135.172 51.957L130.22 56.4155C130.572 57.2396 130.901 58.0751 131.215 58.919L136.39 54.7285C136.523 55.0512 136.647 55.3779 136.775 55.7033L131.579 59.91C131.869 60.738 132.134 61.5792 132.386 62.4259L137.79 58.4991C137.901 58.8297 138.019 59.1563 138.125 59.4898L132.684 63.4433C132.913 64.271 133.116 65.1092 133.307 65.952L138.94 62.2941C139.029 62.634 139.116 62.9757 139.2 63.317L133.539 66.9923C133.709 67.8137 133.854 68.6447 133.986 69.4787L139.825 66.1078C139.895 66.4539 139.949 66.8058 140.012 67.1541L134.149 70.5392C134.262 71.3491 134.353 72.1648 134.431 72.9855L140.449 69.9196C140.496 70.2703 140.542 70.621 140.583 70.9738L134.522 74.0617C134.581 74.8545 134.627 75.6509 134.653 76.4533L140.837 73.6999C140.864 74.052 140.898 74.4027 140.919 74.757L134.671 77.5382C134.674 77.7755 134.683 78.0103 134.683 78.2479C134.683 78.7908 134.668 79.3301 134.653 79.8684L141.001 77.432C141.004 77.703 141.022 77.9706 141.022 78.2434C141.022 78.3282 141.017 78.4116 141.017 78.4955L134.61 80.9548C134.574 81.7115 134.522 82.464 134.454 83.2123L140.95 81.1019C140.934 81.4595 140.91 81.8171 140.889 82.1732L134.352 84.2971C134.273 85.0253 134.181 85.7513 134.075 86.4719L140.679 84.7023C140.643 85.0574 140.606 85.4139 140.563 85.7669L101.426 96.2535C101.346 95.9293 101.26 95.6084 101.166 95.2899L133.867 86.5285L131.807 85.1242L118.405 89.4783C118.303 89.1595 118.191 88.8464 118.082 88.5324L130.763 84.4126L128.906 83.1446L100.737 93.9566C100.626 93.6447 100.503 93.3326 100.377 93.0252L127.901 82.4607L126.208 81.3061L116.893 85.4539C116.758 85.1474 116.61 84.8511 116.469 84.5492L118.412 83.6842C118.481 83.1858 118.54 82.6839 118.59 82.1798L99.8129 91.7464C99.6661 91.4465 99.5151 91.1502 99.3566 90.8558L118.691 81.0053C118.726 80.4796 118.752 79.9508 118.767 79.4194L114.962 81.6171C114.796 81.3274 114.621 81.0441 114.448 80.759L118.789 78.2531V78.2479C118.789 77.6942 118.774 77.1442 118.751 76.5962L98.6532 89.647C98.4793 89.3637 98.2974 89.084 98.1097 88.8088L118.681 75.45C118.641 74.8734 118.589 74.3005 118.524 73.7311L112.637 78.0079C112.443 77.7376 112.244 77.4702 112.043 77.2055L118.387 72.5961C118.302 72.003 118.205 71.4144 118.094 70.8297L97.2844 87.6807C97.0802 87.4178 96.8709 87.1592 96.6561 86.9047L117.863 69.731C117.73 69.1277 117.585 68.5292 117.426 67.9361L109.95 74.6665C109.729 74.4184 109.508 74.1681 109.28 73.9254L117.122 66.8657C116.939 66.2557 116.742 65.6527 116.531 65.0557L95.7201 85.868C95.4892 85.6259 95.254 85.3916 95.0131 85.1618L116.158 64.0169C115.924 63.4072 115.671 62.8069 115.407 62.212L106.932 71.6258C106.685 71.402 106.442 71.1741 106.19 70.956L114.952 61.2258C114.721 60.7395 114.479 60.2598 114.228 59.7849L93.9742 84.2249C93.7213 84.0096 93.4614 83.8009 93.1983 83.5964L113.519 58.5003C113.179 57.9079 112.824 57.3241 112.455 56.7514L103.616 68.9166C103.347 68.7196 103.078 68.5256 102.804 68.3349L111.865 55.8645C111.471 55.2891 111.063 54.7273 110.641 54.1748L92.0698 82.7717C91.794 82.5828 91.5143 82.4029 91.2307 82.2276L109.991 53.3384C109.663 52.9309 109.33 52.5279 108.984 52.1336L118.311 55.0368L118.711 55.1613L119.07 54.943L127.025 50.0932C127.404 50.7374 127.766 51.3934 128.12 52.0551L132.784 47.3906C132.956 47.6895 133.132 47.9852 133.3 48.2871ZM140.033 89.2738L119.493 93.639C119.426 93.3148 119.348 92.9897 119.274 92.6643L140.215 88.2136C140.157 88.5679 140.095 88.921 140.033 89.2738ZM139.324 92.6766L101.869 98.6103C101.824 98.2774 101.772 97.9486 101.713 97.6223L139.562 91.6275C139.485 91.9782 139.407 92.328 139.324 92.6766ZM138.437 95.9705L120.144 97.8933C120.112 97.5624 120.072 97.2316 120.031 96.9008L138.74 94.9347C138.641 95.2812 138.538 95.6265 138.437 95.9705ZM137.401 99.1456L106.526 100.763L106.482 100.468L105.844 100.281L105.776 99.8618L105.599 99.8106L137.75 98.1252C137.635 98.4662 137.521 98.8079 137.401 99.1456ZM136.213 102.185H120.344C120.346 101.853 120.348 101.52 120.342 101.187H136.63C136.495 101.522 136.352 101.852 136.213 102.185ZM97.7434 102.164V102.368L89.2544 103.421V103.239L97.7434 102.164ZM89.1118 102.726L89.117 102.496L88.9958 102.433V102.313L74.9755 100.52L62.9334 98.9435C64.0582 92.7755 68.5991 87.4921 75.0561 85.7624C83.9851 83.3699 93.1652 88.669 95.558 97.5991C95.9132 98.9258 96.0798 100.257 96.1081 101.572C96.1093 101.609 96.1102 101.638 96.1108 101.661L97.7133 101.47V101.379C97.6703 99.9905 97.4724 98.5859 97.0973 97.1862C94.4768 87.4055 84.4236 81.6014 74.6429 84.2204C67.5425 86.1233 62.5418 91.9449 61.3358 98.7336L57.856 98.2786C58.1805 96.3744 58.7471 94.5317 59.5459 92.7975L61.0338 92.9187C61.4386 92.0958 61.8964 91.3033 62.4077 90.5427L61.5583 89.3129C62.9737 87.3101 64.7277 85.5405 66.7651 84.0971L67.9952 84.9453C68.7507 84.4403 69.5447 83.9783 70.3751 83.5711L70.2566 82.0899C71.3625 81.5837 72.521 81.1563 73.7346 80.8312C74.9485 80.5058 76.1659 80.2949 77.3765 80.1827L78.0138 81.5244C78.9386 81.4616 79.8548 81.464 80.7627 81.525L81.4028 80.1755C83.8907 80.4065 86.2931 81.0631 88.5212 82.0883L88.4014 83.5777C89.2234 83.9816 90.0156 84.4379 90.7778 84.9498L92.0055 84.1004C94.007 85.517 95.7794 87.2701 97.2215 89.3084L96.3728 90.5394C96.8802 91.2943 97.3415 92.0871 97.7491 92.9175L99.2294 92.7975C99.735 93.8989 100.16 95.0544 100.485 96.2626L100.493 96.2923C100.758 97.2827 100.928 98.274 101.05 99.262L99.1578 99.4918L98.99 99.8449L98.6044 100.014L98.4865 100.316L97.9999 100.517L97.8739 101.255L103.194 100.497L107.259 101.299L107.264 101.46L103.21 100.7L97.7668 101.464V101.702L89.1118 102.726ZM106.831 110.487L106.818 104.895L107.332 104.975L107.331 110.539L106.831 110.487ZM107.331 116.839L107.325 119.343L106.907 119.359L106.886 116.827L107.331 116.839ZM107.326 116.373L106.868 116.344L106.853 110.901L107.331 110.944L107.326 116.373ZM110.197 116.918L110.205 119.296L109.633 119.305L109.619 117.484L107.657 117.413V116.85L110.197 116.918ZM107.657 105.648V105.012L110.201 105.388L110.197 110.733L109.603 110.694L109.585 105.949L107.657 105.648ZM110.199 111.197L110.197 116.472L109.636 116.451L109.622 111.812L107.657 111.631L107.657 110.97L110.199 111.197ZM112.858 116.997L112.865 119.257L112.29 119.253L112.281 117.554L110.531 117.503V116.952L112.858 116.997ZM110.531 106.106V105.434L112.786 105.765L112.817 110.919L112.259 110.895L112.226 106.361L110.531 106.106ZM112.817 111.435L112.835 116.565L112.271 116.543L112.26 112.068L110.531 111.886V111.226L112.817 111.435ZM106.757 104.473L106.762 103.984L113.78 105.038L113.796 120.214H113.251V105.457L106.757 104.473ZM114.039 104.596L106.771 103.461V103.233L114.025 104.401L115.119 104.29L118.062 104.853V105.052L115.402 104.555V120.492L115.075 120.486V104.51L114.039 104.596ZM134.906 105.106L118.062 104.223V104.207L115.016 103.707V103.327L115.01 103.325L114.085 103.447V103.885L106.801 102.78V102.387L103.214 101.766V101.389L97.75 102.051V101.76L103.243 101.037L107.104 101.735L106.786 101.871V102.053L114.055 103.233L115.024 103.113L118.16 103.688L118.445 103.386L114.963 102.776L113.926 102.906L113.928 102.742L114.973 102.613L118.446 103.209L118.445 103.386L118.446 103.242L135.357 104.128C135.207 104.454 135.062 104.783 134.906 105.106ZM118.063 107.372V107.138L126.456 108.469V108.676L118.063 107.372ZM119.717 113.342L119.483 113.693L118.5 113.646V120.342L118.068 120.33L118.066 113.214L119.717 113.342ZM133.466 107.893L129.181 107.442L129.194 107.46L129.541 107.607V107.953L129.676 108.089H129.781V108.351H129.676V108.486L129.634 108.561V109.169L132.488 109.621C132.305 109.931 132.119 110.236 131.933 110.544L129.634 110.18V111.897L130.902 112.167C130.721 112.443 130.546 112.724 130.36 112.997H130.36C130.24 113.174 130.11 113.342 129.989 113.518L118.063 112.402V111.911L118.259 111.928V107.728L119.674 107.934L119.464 108.182L118.578 108.081V111.942L119.796 112.07V107.95L121.119 108.148L120.928 108.399L120.153 108.294L120.138 112.085L121.282 112.204V108.165L122.617 108.357L122.436 108.606L121.655 108.497V112.222L122.732 112.338V108.373L123.883 108.539L123.781 108.786L123.064 108.69V112.353L124.03 112.456V108.563L125.223 108.736L125.121 108.967L124.372 108.858V112.47L125.345 112.576V108.754L126.486 108.908L126.338 109.133L125.742 109.065V112.596L128.135 112.832V108.266H126.498L118.063 106.899V106.499L126.498 107.94L128.219 107.918V107.293C128.219 107.293 127.969 107.094 128.01 107.083C128.053 107.073 128.135 106.748 128.135 106.748L124.808 106.866L124.716 106.972L120.09 106.486C120.127 106.155 120.17 105.826 120.199 105.492L133.98 106.941C133.813 107.261 133.639 107.576 133.466 107.893ZM129.207 114.427L128.704 114.415V115.32C128.495 115.597 128.246 115.905 128.141 116.041V113.965L129.596 114.072L129.207 114.427ZM127.479 114.265L126.718 114.233V117.838C126.511 118.086 126.276 118.341 126.179 118.456V113.821L127.891 113.946L127.479 114.265ZM125.63 114.155L124.868 114.122V119.961L124.525 120.335H124.26V113.678L125.904 113.8L125.63 114.155ZM123.566 113.987L122.746 113.948V120.342H122.093V113.518L123.976 113.658L123.566 113.987ZM121.475 113.845L120.577 113.803V120.342H119.967L119.969 113.361L121.841 113.499L121.475 113.845ZM94.4076 146.228V139.872C95.1394 139.692 95.8669 139.491 96.5941 139.282V139.292C123.13 131.696 142.564 107.269 142.564 78.2879C142.564 43.2407 114.15 14.827 79.0992 14.827C44.0463 14.827 15.6338 43.2407 15.6338 78.2879C15.6338 107.269 35.0644 131.696 61.607 139.292C61.607 139.292 63.057 139.705 63.7957 139.886V146.228C64.3981 146.258 65.0643 146.319 65.7034 146.449V140.322C65.7229 140.328 65.7419 140.331 65.7645 140.335C66.4691 140.485 67.1768 140.619 67.8836 140.747C67.8893 140.75 67.8947 140.75 67.9023 140.751C68.5348 140.864 69.1691 140.968 69.8052 141.062H69.81C70.5315 141.169 71.2617 141.266 71.9929 141.349C72.614 141.418 73.2416 141.481 73.8702 141.534C73.8862 141.534 73.8985 141.538 73.9135 141.538C74.6372 141.599 75.3587 141.641 76.0862 141.677C77.0866 141.723 78.0896 141.753 79.0992 141.753C80.1023 141.753 81.0981 141.723 82.0888 141.678C82.1002 141.677 82.1096 141.677 82.118 141.677C82.8377 141.641 83.5595 141.599 84.2711 141.54C84.3292 141.534 84.3791 141.529 84.4329 141.524C85.0071 141.475 85.5797 141.418 86.1512 141.353C86.2197 141.346 86.2886 141.338 86.3629 141.329C86.9921 141.255 87.6198 141.172 88.242 141.08C88.3482 141.064 88.4538 141.051 88.5618 141.033C89.0306 140.963 89.501 140.886 89.966 140.806C90.1579 140.771 90.3501 140.74 90.5495 140.701C90.9125 140.635 91.2653 140.561 91.6286 140.493C91.9182 140.433 92.2037 140.38 92.4897 140.318V146.454C93.139 146.321 93.8154 146.258 94.4281 146.228H94.4076Z" fill="white"/>
<path d="M75.9761 145.701C76.6104 145.414 77.2916 145.211 78.0065 145.106V144.369C77.3695 144.359 76.728 144.351 76.0907 144.32V145.638C76.0513 145.656 76.0194 145.683 75.9761 145.701Z" fill="white"/>
<path d="M144.89 96.3012C144.391 96.2742 144.012 95.8546 144.04 95.3593C144.063 94.8636 144.49 94.4834 144.987 94.5087C145.479 94.5352 145.861 94.9574 145.833 95.4528C145.805 95.9466 145.381 96.3277 144.89 96.3012ZM141.004 108.517C140.88 108.999 140.391 109.288 139.91 109.161C139.426 109.038 139.144 108.548 139.265 108.068C139.393 107.588 139.883 107.297 140.361 107.425C140.843 107.549 141.13 108.04 141.004 108.517ZM133.647 120.349C133.43 120.793 132.889 120.978 132.446 120.757C131.999 120.538 131.815 120.001 132.037 119.555C132.257 119.112 132.792 118.928 133.238 119.147C133.685 119.366 133.868 119.902 133.647 120.349ZM124.063 130.457C123.755 130.848 123.195 130.919 122.802 130.617C122.412 130.313 122.338 129.749 122.641 129.356C122.948 128.965 123.513 128.893 123.902 129.199C124.294 129.503 124.366 130.066 124.063 130.457ZM112.746 138.372C112.371 138.696 111.803 138.652 111.479 138.277C111.159 137.902 111.198 137.336 111.573 137.011C111.951 136.69 112.516 136.731 112.841 137.108C113.163 137.482 113.121 138.052 112.746 138.372ZM100.078 143.872C99.6476 144.113 99.0978 143.96 98.8551 143.527C98.6172 143.094 98.766 142.548 99.2033 142.303C99.6352 142.065 100.181 142.218 100.425 142.651C100.664 143.085 100.508 143.632 100.078 143.872ZM146.164 81.8347C146.089 81.3433 146.427 80.8852 146.916 80.8106C147.407 80.7336 147.865 81.0723 147.943 81.5634C148.015 82.0518 147.679 82.5093 147.188 82.5845C146.696 82.6588 146.239 82.3219 146.164 81.8347ZM146.659 68.687C146.196 68.8602 145.679 68.6229 145.502 68.16C145.335 67.6951 145.568 67.1778 146.034 67.0033C146.5 66.8313 147.014 67.0674 147.186 67.5354C147.362 67.9991 147.126 68.5137 146.659 68.687ZM143.324 55.1847C142.898 55.449 142.348 55.3209 142.088 54.9013C141.821 54.4818 141.945 53.9293 142.365 53.6649C142.79 53.3987 143.343 53.5275 143.606 53.9482C143.868 54.3669 143.742 54.9221 143.324 55.1847ZM137.318 42.6403C136.956 42.9846 136.391 42.9714 136.049 42.6159C135.703 42.2562 135.717 41.6881 136.073 41.3464C136.435 41.0008 137.003 41.0122 137.344 41.3738C137.683 41.7284 137.673 42.2977 137.318 42.6403ZM128.973 31.6616C128.692 32.0691 128.129 32.1708 127.722 31.8902C127.315 31.6099 127.215 31.0508 127.497 30.6426C127.773 30.2342 128.339 30.1304 128.744 30.4138C129.148 30.6953 129.251 31.2523 128.973 31.6616ZM118.592 22.5838C118.4 23.0412 117.871 23.2539 117.416 23.0602C116.956 22.8653 116.746 22.3372 116.94 21.883C117.134 21.4265 117.66 21.2138 118.116 21.4084C118.571 21.6006 118.786 22.1275 118.592 22.5838ZM106.708 15.8266C106.609 16.3129 106.132 16.6245 105.648 16.5265C105.159 16.4287 104.847 15.9547 104.947 15.4699C105.043 14.9836 105.521 14.669 106.003 14.7679C106.494 14.8657 106.8 15.3412 106.708 15.8266ZM92.8167 12.4746C92.3162 12.4746 91.918 12.0728 91.918 11.5769C91.918 11.0809 92.3162 10.6776 92.8167 10.6776C93.3139 10.6776 93.7109 11.0809 93.7109 11.5769C93.7109 12.0728 93.3139 12.4746 92.8167 12.4746ZM65.3832 12.4746C64.8929 12.4746 64.4881 12.0728 64.4881 11.5769C64.4881 11.0809 64.8929 10.6776 65.3832 10.6776C65.8809 10.6776 66.2797 11.0809 66.2797 11.5769C66.2797 12.0728 65.8809 12.4746 65.3832 12.4746ZM52.5507 16.5265C52.067 16.6245 51.5906 16.3129 51.4929 15.8266C51.3933 15.3412 51.7055 14.8657 52.193 14.7679C52.6797 14.669 53.151 14.9836 53.2526 15.4699C53.3486 15.9547 53.0343 16.4287 52.5507 16.5265ZM40.7864 23.0602C40.329 23.2539 39.802 23.0412 39.6062 22.5838C39.4135 22.1275 39.627 21.6006 40.0845 21.4084C40.5371 21.2138 41.0667 21.4265 41.2604 21.883C41.4562 22.3372 41.2409 22.8653 40.7864 23.0602ZM30.4767 31.8902C30.0682 32.1708 29.5085 32.0691 29.2261 31.6616C28.9449 31.2523 29.0484 30.6953 29.4547 30.4138C29.867 30.1304 30.4231 30.2342 30.7047 30.6426C30.985 31.0508 30.8833 31.6099 30.4767 31.8902ZM22.1529 42.6159C21.8121 42.9714 21.24 42.9846 20.8815 42.6403C20.523 42.2977 20.5143 41.7284 20.8533 41.3738C21.1967 41.0122 21.7697 41.0008 22.1246 41.3464C22.484 41.6881 22.4942 42.2562 22.1529 42.6159ZM16.1136 54.9013C15.8519 55.3209 15.2994 55.449 14.879 55.1847C14.4555 54.9221 14.3313 54.3669 14.5966 53.9482C14.8582 53.5275 15.4095 53.3987 15.8312 53.6649C16.2519 53.9293 16.3807 54.4818 16.1136 54.9013ZM12.6958 68.16C12.5246 68.6229 12.0022 68.8602 11.5402 68.687C11.0783 68.5137 10.8374 67.9991 11.0124 67.5354C11.1844 67.0674 11.7038 66.8313 12.1631 67.0033C12.6308 67.1778 12.8642 67.6951 12.6958 68.16ZM11.2843 80.8106C11.7736 80.8852 12.1105 81.3433 12.0371 81.8347C11.9607 82.3219 11.5008 82.6588 11.0094 82.5845C10.524 82.5093 10.1853 82.0518 10.2623 81.5634C10.3339 81.0723 10.7922 80.7336 11.2843 80.8106ZM13.2152 94.5087C13.712 94.4834 14.1316 94.8636 14.158 95.3593C14.1845 95.8546 13.8044 96.2742 13.3072 96.3012C12.8164 96.3277 12.3929 95.9466 12.3682 95.4528C12.3412 94.9574 12.724 94.5352 13.2152 94.5087ZM17.839 107.425C18.3164 107.297 18.8057 107.588 18.9308 108.068C19.0589 108.548 18.7669 109.038 18.289 109.161C17.8093 109.288 17.3178 108.999 17.1975 108.517C17.0715 108.04 17.3575 107.549 17.839 107.425ZM24.9589 119.147C25.4077 118.928 25.9421 119.112 26.1623 119.555C26.3815 120.001 26.1972 120.538 25.7559 120.757C25.3117 120.978 24.768 120.793 24.5505 120.349C24.3322 119.902 24.5165 119.366 24.9589 119.147ZM34.2945 129.199C34.6858 128.893 35.2525 128.965 35.5562 129.356C35.8642 129.749 35.7905 130.313 35.4001 130.617C35.0049 130.919 34.441 130.848 34.1354 130.457C33.8362 130.066 33.9096 129.503 34.2945 129.199ZM45.3586 137.108C45.6816 136.731 46.2479 136.69 46.6272 137.011C47.0016 137.336 47.044 137.902 46.7192 138.277C46.3965 138.652 45.8302 138.696 45.4572 138.372C45.081 138.052 45.038 137.482 45.3586 137.108ZM57.7788 142.651C58.017 142.218 58.5628 142.065 58.9974 142.303C59.4302 142.548 59.5845 143.094 59.3427 143.527C59.1018 143.96 58.5562 144.113 58.1204 143.872C57.6943 143.632 57.5379 143.085 57.7788 142.651ZM145.888 99.132C145.871 99.037 145.853 98.9401 145.84 98.8394C145.628 97.2483 146.789 94.8579 147.336 93.835L147.33 93.817C147.308 93.7307 147.285 93.641 147.265 93.5499C146.931 91.998 147.865 89.5489 148.312 88.4986L148.302 88.461C148.277 88.3934 148.252 88.3218 148.226 88.2445C147.774 86.695 148.537 84.156 148.916 83.0597L148.914 83.0552C148.871 82.961 148.83 82.8621 148.789 82.7622C148.221 81.2879 148.788 78.6963 149.079 77.5729L149.066 77.551C149.026 77.4713 148.979 77.3865 148.935 77.3037C148.246 75.8499 148.614 73.2206 148.817 72.0801L148.807 72.0633C148.758 71.9869 148.712 71.9117 148.663 71.8338C147.858 70.4353 148.003 67.7901 148.11 66.6394C148.045 66.5546 147.978 66.4662 147.912 66.375C146.999 65.0445 146.938 62.39 146.963 61.2332L146.938 61.2071C146.88 61.1373 146.811 61.063 146.753 60.9857C145.755 59.7682 145.489 57.1258 145.42 55.9648L145.402 55.9498C145.335 55.8857 145.267 55.8199 145.2 55.7501C144.011 54.4986 143.566 51.5984 143.442 50.6179C143.293 50.4985 143.168 50.3969 143.059 50.2982C141.864 49.2401 141.172 46.6789 140.918 45.5498L140.88 45.5224C140.815 45.4803 140.751 45.4349 140.688 45.3868C139.401 44.4111 138.511 41.9109 138.169 40.8071L138.14 40.7903C138.057 40.7422 137.972 40.6931 137.889 40.6396C136.557 39.7936 135.476 37.3667 135.047 36.2894L135.022 36.2783C134.938 36.2404 134.857 36.1992 134.775 36.1541C133.358 35.3956 132.093 33.0611 131.581 32.0183L131.561 32.0087C131.478 31.9768 131.396 31.9467 131.31 31.9091C129.839 31.2628 128.385 29.0465 127.786 28.0528L127.78 28.051C127.678 28.0218 127.573 27.9917 127.47 27.9578C125.942 27.4224 124.324 25.324 123.657 24.3781L123.622 24.3706C123.533 24.3501 123.436 24.3303 123.348 24.3068C121.81 23.9152 120.035 21.942 119.295 21.052L119.266 21.0463C119.174 21.0358 119.083 21.0228 118.992 21.0048C117.139 20.6755 114.816 18.2167 114.426 17.7999H114.424C114.33 17.7942 114.238 17.7906 114.144 17.7809C113.384 17.7058 111.493 16.7355 111.122 16.5418C101.228 11.4415 90.5357 8.85379 79.3372 8.85379C67.9848 8.85379 56.7201 11.6542 46.7616 16.9539C46.6846 16.9945 46.617 17.0215 46.5791 17.0396C45.4461 17.6369 44.5258 17.9758 43.8361 18.0426C43.7354 18.0519 43.628 18.0679 43.5245 18.0832C42.7248 18.9055 40.8033 20.7245 39.2291 21.0048C39.1413 21.0228 39.0474 21.0358 38.9533 21.0463L38.9271 21.052C38.1855 21.942 36.4089 23.9152 34.875 24.3068C34.7848 24.3303 34.6906 24.3501 34.5983 24.3706L34.5646 24.3781C33.8927 25.324 32.2758 27.4224 30.7516 27.9578C30.6481 27.9917 30.5456 28.0218 30.4439 28.051L30.4307 28.0528C29.8379 29.0465 28.384 31.2628 26.9103 31.9091C26.8276 31.9467 26.744 31.9768 26.663 32.0087L26.6384 32.0162C26.1295 33.0611 24.8639 35.3956 23.4551 36.1541C23.3646 36.1992 23.2801 36.2404 23.201 36.2783L23.1784 36.2894C22.7456 37.3667 21.6635 39.7936 20.3339 40.6396C20.2508 40.6931 20.1633 40.7422 20.0806 40.7903L20.0571 40.8071C19.7119 41.9109 18.8234 44.4111 17.5326 45.388C17.4694 45.4349 17.4072 45.4803 17.3434 45.5224L17.3049 45.5498C17.048 46.6789 16.3524 49.2401 15.1611 50.3009C15.0501 50.3969 14.9259 50.4985 14.7752 50.6179C14.6588 51.5984 14.208 54.4986 13.0176 55.7519C12.9574 55.8199 12.8849 55.8857 12.8239 55.9498L12.801 55.9648C12.7354 57.1258 12.4699 59.7682 11.4723 60.9857C11.4085 61.063 11.3426 61.1373 11.2843 61.2071L11.2596 61.2332C11.2816 62.39 11.2229 65.0445 10.3056 66.3759C10.2443 66.4662 10.1766 66.5546 10.1116 66.6394C10.2199 67.7901 10.364 70.4353 9.55853 71.8338C9.51131 71.9117 9.46619 71.9869 9.41717 72.0633L9.40123 72.0801C9.60935 73.2206 9.97628 75.8499 9.28453 77.3037C9.24122 77.3865 9.19912 77.4713 9.15761 77.551L9.14258 77.5729C9.43612 78.6963 10.0027 81.2879 9.4304 82.7622C9.391 82.8621 9.34949 82.961 9.31009 83.0552L9.3083 83.0597C9.68274 84.156 10.4506 86.695 9.99132 88.2457C9.97057 88.3218 9.9441 88.3934 9.91793 88.461L9.91041 88.4986C10.3582 89.5489 11.2897 91.998 10.9586 93.5511C10.9324 93.641 10.9116 93.7307 10.8909 93.817L10.8852 93.835C11.4347 94.8579 12.595 97.2483 12.3824 98.8394C12.3682 98.9401 12.3505 99.037 12.3324 99.132V99.1404C12.9583 100.12 14.2916 102.411 14.2032 103.989C14.1947 104.093 14.1845 104.196 14.1761 104.3V104.31C14.8733 105.235 16.3828 107.419 16.424 109.037C16.4276 109.142 16.4222 109.255 16.4192 109.358V109.36C17.1852 110.23 18.8556 112.288 19.0228 113.89C19.0307 113.979 19.0361 114.073 19.0418 114.158L19.0457 114.181C19.8803 114.984 21.7276 116.9 22.0115 118.478C22.0304 118.563 22.0464 118.65 22.0539 118.733L22.0605 118.78C22.9574 119.518 24.9373 121.284 25.337 122.808C25.3662 122.905 25.3896 123.005 25.4104 123.101V123.125C26.3629 123.79 28.4745 125.396 29.0162 126.92C29.0427 126.999 29.067 127.081 29.0917 127.156L29.0956 127.186C30.0965 127.776 32.3267 129.212 32.9685 130.673C33.0401 130.828 33.0948 130.985 33.1586 131.135C34.0527 131.549 36.6856 132.86 37.5154 134.369C37.5587 134.45 37.6011 134.53 37.6378 134.609L37.6564 134.642C38.734 135.061 41.1741 136.118 42.0322 137.438C42.0887 137.523 42.1338 137.602 42.1829 137.683L42.2015 137.713C43.3101 138.046 45.8206 138.908 46.8125 140.187C46.8681 140.262 46.9252 140.34 46.9782 140.416L47.0016 140.452C48.1337 140.696 50.7007 141.37 51.7846 142.559C51.8354 142.617 51.8863 142.678 51.9362 142.738L51.969 142.778C53.1209 142.929 55.7405 143.378 56.9093 144.48C56.9808 144.543 57.041 144.606 57.1033 144.671L57.1276 144.695C58.1337 144.749 60.2591 144.944 61.6068 145.647V142.07C59.7785 141.569 57.97 141.008 56.2019 140.359L55.222 141.712L51.9765 140.656L49.5443 139.307L49.8697 137.636C47.9021 136.666 45.9863 135.602 44.1345 134.445L42.8809 135.614L40.6057 134.352L37.8522 132.046L38.4772 130.499C36.7457 129.154 35.0894 127.723 33.505 126.218L32.0172 127.147L29.6357 125.151L27.8402 122.764L28.8508 121.321C27.427 119.661 26.0805 117.933 24.8272 116.139L23.2518 116.68L21.0103 113.699L19.9302 111.486L21.1721 110.287C20.1146 108.382 19.1471 106.417 18.2833 104.402L16.5897 104.639L15.3211 102.04L14.4684 98.8487L15.8838 97.9284C15.2402 95.8573 14.6943 93.7373 14.2522 91.5832L12.4963 91.4909L11.6605 88.3894L11.561 85.5064L13.2395 84.8976C13.0176 82.7436 12.9084 80.5643 12.9084 78.3567L11.2993 77.8926L11.1808 74.587L11.5911 71.6774L13.2528 71.3821C13.4804 69.1932 13.8137 67.0328 14.2477 64.9079L12.6485 64.1308L13.0798 61.1015L14.1647 58.2711L15.9404 58.3643C16.5969 56.2713 17.3563 54.2201 18.2099 52.2261L16.8944 51.1599L18.1554 47.8693L19.5708 45.6045L21.2569 46.0241C22.3222 44.1128 23.4822 42.2619 24.7264 40.4721L23.6112 39.1424L25.0699 36.8088L27.4149 34.2927L28.9599 35.0115C30.3892 33.3612 31.8903 31.7792 33.4729 30.2766L32.6112 28.7211L34.4214 26.777L37.2784 24.7772L38.6616 25.8188C40.3912 24.4903 42.178 23.2406 44.028 22.0803L43.5191 20.4054L45.607 18.9422L48.9373 17.4618L50.0751 18.7277C52.0264 17.7698 54.0337 16.9114 56.087 16.1502L55.8951 14.3634L58.5965 13.1625L61.6775 12.5661L62.544 14.1261C64.6406 13.5871 66.7775 13.1456 68.9448 12.8136L69.1553 11.1092L79.099 9.99698L89.0376 11.1092L89.2485 12.8136C91.4215 13.1456 93.5539 13.5871 95.6529 14.1261L96.5197 12.5661L99.6015 13.1625L102.3 14.3634L102.113 16.1502C104.164 16.9114 106.17 17.7698 108.121 18.7277L109.261 17.4618L112.592 18.9449L114.681 20.4054L114.165 22.0803C116.019 23.2406 117.809 24.4903 119.533 25.8188L120.918 24.7772L123.776 26.7797L125.588 28.7211L124.724 30.2766C126.305 31.7792 127.81 33.3612 129.236 35.0115L130.778 34.2927L133.132 36.8088L134.587 39.1424L133.47 40.4721C134.714 42.2619 135.876 44.1128 136.942 46.0241L138.625 45.6045L140.042 47.8693L141.304 51.1599L139.989 52.2261C140.838 54.2201 141.598 56.2713 142.256 58.3643L144.032 58.2711L145.118 61.1015L145.544 64.1326L143.949 64.9079C144.387 67.0328 144.716 69.1932 144.941 71.3821L146.603 71.6774L147.014 74.587L146.899 77.8926L145.292 78.3567C145.284 80.5652 145.178 82.7436 144.96 84.8976L146.632 85.5082L146.534 88.3894L145.704 91.4909L143.944 91.5832C143.503 93.7373 142.958 95.8573 142.311 97.9284L143.73 98.8487L142.873 102.042L141.607 104.639L139.917 104.402C139.051 106.417 138.083 108.382 137.028 110.287L138.267 111.488L137.187 113.701L134.942 116.68L133.371 116.139C132.114 117.933 130.772 119.664 129.346 121.319L130.358 122.764L128.558 125.151L126.181 127.147L124.693 126.218C123.109 127.723 121.449 129.154 119.717 130.499L120.344 132.046L117.598 134.353L115.319 135.614L114.065 134.445C112.213 135.602 110.301 136.666 108.331 137.637L108.654 139.307L106.216 140.656L102.977 141.712L101.991 140.359C100.228 141.008 98.4232 141.569 96.5939 142.07V145.659C97.9338 144.947 100.079 144.749 101.094 144.695L101.12 144.671C101.181 144.606 101.245 144.543 101.31 144.48C102.483 143.378 105.102 142.929 106.252 142.778L106.288 142.738C106.336 142.678 106.385 142.617 106.438 142.559C107.521 141.37 110.089 140.696 111.219 140.452L111.244 140.416C111.299 140.34 111.353 140.262 111.414 140.187C112.4 138.908 114.91 138.046 116.022 137.713L116.037 137.683C116.085 137.602 116.136 137.523 116.189 137.438C117.047 136.118 119.487 135.061 120.568 134.642L120.584 134.609C120.623 134.53 120.665 134.45 120.707 134.369C121.538 132.86 124.166 131.549 125.067 131.135C125.122 130.985 125.181 130.828 125.249 130.673C125.895 129.212 128.124 127.776 129.125 127.186L129.133 127.156C129.157 127.081 129.182 126.999 129.206 126.918C129.743 125.396 131.86 123.79 132.805 123.125L132.813 123.101C132.833 123.005 132.855 122.905 132.882 122.808C133.283 121.284 135.264 119.518 136.162 118.78L136.169 118.733C136.178 118.65 136.193 118.563 136.208 118.479C136.498 116.9 138.339 114.984 139.177 114.181L139.179 114.158C139.184 114.073 139.191 113.979 139.198 113.888C139.368 112.288 141.038 110.23 141.801 109.36V109.358C141.799 109.255 141.798 109.142 141.798 109.034C141.838 107.419 143.345 105.235 144.049 104.31L144.043 104.3C144.037 104.196 144.024 104.093 144.017 103.991C143.929 102.411 145.266 100.12 145.888 99.1404V99.132Z" fill="white"/>
</svg>
